<?xml version="1.0" encoding="UTF-8" standalone="no"?>
<!-- Created with Inkscape (http://www.inkscape.org/) -->

<svg
   xmlns:dc="http://purl.org/dc/elements/1.1/"
   xmlns:cc="http://creativecommons.org/ns#"
   xmlns:rdf="http://www.w3.org/1999/02/22-rdf-syntax-ns#"
   xmlns:svg="http://www.w3.org/2000/svg"
   xmlns="http://www.w3.org/2000/svg"
   xmlns:xlink="http://www.w3.org/1999/xlink"
   xmlns:sodipodi="http://sodipodi.sourceforge.net/DTD/sodipodi-0.dtd"
   xmlns:inkscape="http://www.inkscape.org/namespaces/inkscape"
   width="1024"
   height="768"
   viewBox="0 0 270.93333 203.2"
   version="1.1"
   id="svg8"
   enable-background="new"
   inkscape:version="0.92.1 r15371"
   sodipodi:docname="proceso_blended.svg">
  <defs
     id="defs2">
    <symbol
       id="symbol5931">
      <title
         id="title5927">Hour Glass</title>
      <path
         d="M571 512c118-85 197-240 197-384 0-71-172-128-384-128s-384 57-384 128c0 144 80 299 197 384-118 85-197 240-197 384 0 71 172 128 384 128s384-57 384-128c0-144-80-299-197-384z m-187-448c141 0 256 29 256 64s-115 64-256 64-256-29-256-64 115-64 256-64z m-64 706c-154 7-238 40-253 82 16-114 75-189 141-251 73-68 112-60 112-103v273z m-105-352c-70-55-122-130-142-215 70 32 183 53 311 53s241-21 311-53c-20 85-72 160-142 215-24-17-70-34-169-34s-145 17-169 34z m233 352v-273c0 43 39 35 112 103 66 62 125 138 141 251-14-41-99-75-253-82z"
         style="stroke:none"
         id="path5929" />
    </symbol>
    <symbol
       id="icon-male"
       viewBox="0 0 16 28">
      <title
         id="title12464">male</title>
      <path
         class="path1"
         d="M16 11v6.5c0 0.828-0.672 1.5-1.5 1.5s-1.5-0.672-1.5-1.5v-5.5h-1v14.25c0 0.969-0.781 1.75-1.75 1.75s-1.75-0.781-1.75-1.75v-7.25h-1v7.25c0 0.969-0.781 1.75-1.75 1.75s-1.75-0.781-1.75-1.75v-14.25h-1v5.5c0 0.828-0.672 1.5-1.5 1.5s-1.5-0.672-1.5-1.5v-6.5c0-1.656 1.344-3 3-3h10c1.656 0 3 1.344 3 3zM11.5 4c0 1.937-1.563 3.5-3.5 3.5s-3.5-1.563-3.5-3.5 1.563-3.5 3.5-3.5 3.5 1.563 3.5 3.5z"
         id="path12466" />
    </symbol>
    <symbol
       id="university"
       viewBox="0 0 544.94538 370.90805">
      <title
         id="title14668">university</title>
      <path
         d="m253.52987 0.00379506a5.0005 5.0005 0 0 0 -2.4414 0.5293l-248.33203 124.71484a5.0005 5.0005 0 0 0 2.177734 9.46875l309.48633 4.15039a5.0005 5.0005 0 0 0 2.37695 -0.5664l225.46094-117.55274a5.0005 5.0005 0 0 0 -2.11523 -9.42969l-286.61329-11.314455zm192.31055 88.1582a5.0005 5.0005 0 0 0 -2.1875 0.60352l-123.32031 67.132815-185.64453-5.29297a5.0005 5.0005 0 0 0 -4.87891 3.39453l-26.83203 79.28125a5.0005 5.0005 0 0 0 5.79102 6.49024c2.26759-0.49012 2.82082-1.03144 4.73437-1.93945s4.4128-2.11764 7.50195-3.53711c6.1783-2.83896 14.69589-6.51362 25.17969-10.12696 20.96761-7.22667 49.7694-14.18513 83.1875-13.62304 16.70398 0.28095 45.0471 7.00596 68.7168 13.74023 23.66969 6.73427 42.89648 13.39258 42.89648 13.39258a5.0005 5.0005 0 0 0 5.41406 -1.44727s35.81436-40.8878 61.80665-57.03515c12.50288-7.76725 34.85713-13.89385 53.76757-17.70703 18.91044-3.81319 34.42578-5.5254 34.42578-5.5254a5.0005 5.0005 0 0 0 3.24219 -8.23242l-49.81054-57.835935a5.0005 5.0005 0 0 0 -3.99024 -1.73243zm-331.14453 61.441415-30.031251 0.4375c-4.1904 6.98455-7.208762 15.75451-10.4375 26.1875-4.652567 15.0338-8.589858 33.04796-10.90625 51-2.209529 17.12384-3.857263 31.89861-5.091797 44.44531-14.25051 2.2775-25.409288 14.23289-26.455078 28.8418a5.0005 5.0005 0 0 0 -0.01953 0.0527 5.0005 5.0005 0 0 0 -0.126953 0.48243 5.0005 5.0005 0 0 0 -0.08008 0.49414 5.0005 5.0005 0 0 0 -0.0059 0.0664l-4.285156 53.22266a5.0005 5.0005 0 0 0 0.683594 2.875 5.0005 5.0005 0 0 0 0.591797 0.80469 5.0005 5.0005 0 0 0 0.738281 0.66992 5.0005 5.0005 0 0 0 0.859375 0.51172 5.0005 5.0005 0 0 0 0.46289 0.1875 5.0005 5.0005 0 0 0 1.466797 0.27929 5.0005 5.0005 0 0 0 0.5 -0.008 5.0005 5.0005 0 0 0 0.498047 -0.0566 5.0005 5.0005 0 0 0 0.488281 -0.10547 5.0005 5.0005 0 0 0 0.47461 -0.15234 5.0005 5.0005 0 0 0 2.59375 -2.24414 5.0005 5.0005 0 0 0 0.220703 -0.44727 5.0005 5.0005 0 0 0 0.21875 -0.63281l-0.195313 2.42578a5.0005 5.0005 0 0 0 0.685547 2.875 5.0005 5.0005 0 0 0 0.591797 0.80469 5.0005 5.0005 0 0 0 0.738281 0.67187 5.0005 5.0005 0 0 0 0.857422 0.50977 5.0005 5.0005 0 0 0 0.462891 0.18945 5.0005 5.0005 0 0 0 1.46875 0.27735 5.0005 5.0005 0 0 0 0.5 -0.006 5.0005 5.0005 0 0 0 0.496094 -0.0566 5.0005 5.0005 0 0 0 0.490234 -0.10547 5.0005 5.0005 0 0 0 0.474609 -0.1543 5.0005 5.0005 0 0 0 1.173828 -0.64258 5.0005 5.0005 0 0 0 0.455079 1.25781 5.0005 5.0005 0 0 0 0.255859 0.42969 5.0005 5.0005 0 0 0 1.001953 1.10938 5.0005 5.0005 0 0 0 0.832031 0.55273 5.0005 5.0005 0 0 0 0.925782 0.375 5.0005 5.0005 0 0 0 0.980468 0.18359 5.0005 5.0005 0 0 0 2.441407 -0.40429 5.0005 5.0005 0 0 0 0.447265 -0.22461 5.0005 5.0005 0 0 0 0.421875 -0.26758 5.0005 5.0005 0 0 0 0.392578 -0.30664 5.0005 5.0005 0 0 0 0.361329 -0.3457 5.0005 5.0005 0 0 0 0.851562 -1.22852 5.0005 5.0005 0 0 0 0.197266 -0.45898 5.0005 5.0005 0 0 0 0.167968 -0.54102l1.298828-5.57422c0.06243 0.0142 0.126667 0.0237 0.189454 0.0371l-1.226563 5.26563a5.0005 5.0005 0 0 0 -0.115234 0.99218 5.0005 5.0005 0 0 0 0.576172 2.40625 5.0005 5.0005 0 0 0 0.255859 0.42969 5.0005 5.0005 0 0 0 1.001953 1.10938 5.0005 5.0005 0 0 0 0.832031 0.55273 5.0005 5.0005 0 0 0 0.925782 0.375 5.0005 5.0005 0 0 0 0.980468 0.18359 5.0005 5.0005 0 0 0 2.441407 -0.40429 5.0005 5.0005 0 0 0 0.447265 -0.22461 5.0005 5.0005 0 0 0 0.421875 -0.26758 5.0005 5.0005 0 0 0 0.392578 -0.30664 5.0005 5.0005 0 0 0 0.361329 -0.3457 5.0005 5.0005 0 0 0 0.808593 -1.15039 5.0005 5.0005 0 0 0 0.08203 0.48242 5.0005 5.0005 0 0 0 0.134766 0.48242 5.0005 5.0005 0 0 0 0.984375 1.72461 5.0005 5.0005 0 0 0 0.347656 0.35937 5.0005 5.0005 0 0 0 0.794922 0.60547 5.0005 5.0005 0 0 0 0.4375 0.24024 5.0005 5.0005 0 0 0 0.9375 0.34375 5.0005 5.0005 0 0 0 1.488281 0.15039 5.0005 5.0005 0 0 0 0.496094 -0.0488 5.0005 5.0005 0 0 0 0.96875 -0.24609 5.0005 5.0005 0 0 0 0.898438 -0.43164 5.0005 5.0005 0 0 0 0.796875 -0.60352 5.0005 5.0005 0 0 0 0.347656 -0.35938 5.0005 5.0005 0 0 0 0.582031 -0.81054 5.0005 5.0005 0 0 0 0.429688 -0.97461l8.394538-27.64063c0.90111-1.53012 1.76568-3.09916 2.58984-4.70117 5.74727-11.17159 9.81445-22.89444 9.81445-32.32812 0-11.94349-6.7698-22.40251-16.654297-27.73243 1.230521-12.59174 2.893007-27.57313 5.171877-45.23437 2.1652-16.7803 5.90533-33.92028 10.15625-47.65625s10.177531-24.52167 11.687501-26c3.53733-3.46321 6.61602-5.20164 8.625-6.09375 0.44788-0.19889 0.78068-0.32356 1.0625-0.4375zm-47.960939 206.83789-0.466796 1.5332 0.34375-1.47656c0.04061-0.0197 0.08261-0.0367 0.123046-0.0566z"
         id="path14670" />
    </symbol>
    <symbol
       id="symbol14795">
      <title
         id="title14791">Business</title>
      <path
         d="M24 14v-8h-20v36h40v-28h-20zm-12 24h-4v-4h4v4zm0-8h-4v-4h4v4zm0-8h-4v-4h4v4zm0-8h-4v-4h4v4zm8 24h-4v-4h4v4zm0-8h-4v-4h4v4zm0-8h-4v-4h4v4zm0-8h-4v-4h4v4zm20 24h-16v-4h4v-4h-4v-4h4v-4h-4v-4h16v20zm-4-16h-4v4h4v-4zm0 8h-4v4h4v-4z"
         style="stroke:none"
         id="path14793" />
    </symbol>
    <symbol
       id="icon-calendar-alt-fill"
       viewBox="0 0 1024 1024">
      <title
         id="title15670">calendar-alt-fill</title>
      <path
         class="path1"
         d="M832 128v65.504c0 70.752-57.248 128-128 128s-128-57.248-128-128v-65.504h-128v65.504c0 70.752-57.248 128-128 128s-128-57.248-128-128v-65.504h-192v896h1024v-896h-192zM320 896h-128v-128h128v128zM320 640h-128v-128h128v128zM576 896h-128v-128h128v128zM576 640h-128v-128h128v128zM704 896v-128h128l-128 128zM832 640h-128v-128h128v128zM256 192v-128c0-35.36 28.64-64 64-64s64 28.64 64 64v128c0 35.36-28.64 64-64 64s-64-28.64-64-64zM640 192v-128c0-35.36 28.64-64 64-64s64 28.64 64 64v128c0 35.36-28.64 64-64 64s-64-28.64-64-64z"
         id="path15672" />
    </symbol>
    <symbol
       id="symbol18537">
      <title
         id="title18533">School</title>
      <path
         d="M10 26.36v8L24 42l14-7.64v-8L24 34l-14-7.64zM24 6L2 18l22 12 18-9.82V34h4V18L24 6z"
         style="stroke:none"
         id="path18535" />
    </symbol>
    <symbol
       id="building"
       viewBox="0 0 20 20">
      <title
         id="title21209">building</title>
      <path
         d="M3 20h14V0H3v20zM7 3H5V1h2v2zm4 0H9V1h2v2zm4 0h-2V1h2v2zM7 6H5V4h2v2zm4 0H9V4h2v2zm4 0h-2V4h2v2zM7 9H5V7h2v2zm4 0H9V7h2v2zm4 0h-2V7h2v2zm-8 3H5v-2h2v2zm4 0H9v-2h2v2zm4 0h-2v-2h2v2zm-4 7H5v-6h6v6zm4-4h-2v-2h2v2zm0 3h-2v-2h2v2z"
         id="path21211" />
    </symbol>
    <symbol
       id="calendar-alt"
       viewBox="0 0 20 20">
      <title
         id="title21219">calendar-alt</title>
      <path
         d="M15 4h3v15H2V4h3V3c0-.41.15-.76.44-1.06.29-.29.65-.44 1.06-.44s.77.15 1.06.44c.29.3.44.65.44 1.06v1h4V3c0-.41.15-.76.44-1.06.29-.29.65-.44 1.06-.44s.77.15 1.06.44c.29.3.44.65.44 1.06v1zM6 3v2.5a.491.491 0 0 0 .5.5.491.491 0 0 0 .5-.5V3c0-.14-.05-.26-.15-.35-.09-.1-.21-.15-.35-.15s-.26.05-.35.15c-.1.09-.15.21-.15.35zm7 0v2.5c0 .14.05.26.14.36.1.09.22.14.36.14s.26-.05.36-.14c.09-.1.14-.22.14-.36V3a.491.491 0 0 0-.5-.5.491.491 0 0 0-.5.5zm4 15V8H3v10h14zM7 9v2H5V9h2zm2 0h2v2H9V9zm4 2V9h2v2h-2zm-6 1v2H5v-2h2zm2 0h2v2H9v-2zm4 2v-2h2v2h-2zm-6 1v2H5v-2h2zm4 2H9v-2h2v2zm4 0h-2v-2h2v2z"
         id="path21221" />
    </symbol>
    <symbol
       id="groups"
       viewBox="0 0 20 20">
      <title
         id="title21614">groups</title>
      <path
         d="M8.03 4.46c-.29 1.28.55 3.46 1.97 3.46 1.41 0 2.25-2.18 1.96-3.46-.22-.98-1.08-1.63-1.96-1.63-.89 0-1.74.65-1.97 1.63zm-4.13.9c-.25 1.08.47 2.93 1.67 2.93s1.92-1.85 1.67-2.93c-.19-.83-.92-1.39-1.67-1.39s-1.48.56-1.67 1.39zm8.86 0c-.25 1.08.47 2.93 1.66 2.93 1.2 0 1.92-1.85 1.67-2.93-.19-.83-.92-1.39-1.67-1.39-.74 0-1.47.56-1.66 1.39zm-.59 11.43l1.25-4.3C14.2 10 12.71 8.47 10 8.47c-2.72 0-4.21 1.53-3.44 4.02l1.26 4.3C8.05 17.51 9 18 10 18c.98 0 1.94-.49 2.17-1.21zm-6.1-7.63c-.49.67-.96 1.83-.42 3.59l1.12 3.79c-.34.2-.77.31-1.2.31-.85 0-1.65-.41-1.85-1.03l-1.07-3.65c-.65-2.11.61-3.4 2.92-3.4.27 0 .54.02.79.06-.1.1-.2.22-.29.33zm8.35-.39c2.31 0 3.58 1.29 2.92 3.4l-1.07 3.65c-.2.62-1 1.03-1.85 1.03-.43 0-.86-.11-1.2-.31l1.11-3.77c.55-1.78.08-2.94-.42-3.61-.08-.11-.18-.23-.28-.33.25-.04.51-.06.79-.06z"
         id="path21616" />
    </symbol>
    <symbol
       id="welcome-learn-more"
       viewBox="0 0 20 20">
      <title
         id="title22159">welcome-learn-more</title>
      <path
         d="M10 10L2.54 7.02 3 18H1l.48-11.41L0 6l10-4 10 4zm0-5c-.55 0-1 .22-1 .5s.45.5 1 .5 1-.22 1-.5-.45-.5-1-.5zm0 6l5.57-2.23c.71.94 1.2 2.07 1.36 3.3-.3-.04-.61-.07-.93-.07-2.55 0-4.78 1.37-6 3.41A6.986 6.986 0 0 0 4 12c-.32 0-.63.03-.93.07.16-1.23.65-2.36 1.36-3.3z"
         id="path22161" />
    </symbol>
    <symbol
       id="station_water"
       viewBox="0 0 522 385.97461">
      <title
         id="title30214">station_water</title>
      <path
         opacity=".6"
         d="m0.00781 32.041024v35.04687h178.95117v-35.04687h-178.95117zm-0.0078 53.17773v35.062496h175.96875c0.99274-1.10931 1.95852-2.2494 3-3.3125v-31.749996h-178.96875zm231.31641 20.095696a3.9771285 3.9771285 0 0 0 -1.57227 0.28321l-18.30469 7.32226a3.9771285 3.9771285 0 0 0 -0.85156 0.46875l-21.9668 15.86524a3.9771285 3.9771285 0 0 0 -0.42382 6.09375l54.61132 52.32421a3.9771285 3.9771285 0 0 0 1.45899 0.88282 3.9771285 3.9771285 0 0 0 0.0898 1.41406l18.15235 72.1543a3.9771285 3.9771285 0 0 0 5.33398 2.72265l18.30469-7.32226a3.9771285 3.9771285 0 0 0 0.85156 -0.46875l21.9668-15.86328a3.9771285 3.9771285 0 0 0 0.42383 -6.09571l-54.61133-52.32422a3.9771285 3.9771285 0 0 0 -1.45899 -0.88281 3.9771285 3.9771285 0 0 0 -0.0898 -1.41406l-18.15234-72.1543a3.9771285 3.9771285 0 0 0 -3.76172 -3.00586zm-231.31642 33.0918v34.90625h151.75c0.31349-2.47394 0.63121-4.96192 1.125-7.375 0.65498-3.20079 1.4485-6.32699 2.40625-9.40625s2.06846-6.09 3.3125-9.03125 2.64239-5.80698 4.15625-8.59375c0.094-0.1731 0.21746-0.32753 0.3125-0.5h-163.0625zm0 53.03125v35.0625h159.78125c-0.37854-0.82943-0.83154-1.62716-1.1875-2.46875-1.24404-2.94125-2.35475-5.95199-3.3125-9.03125s-1.75127-6.20546-2.40625-9.40625-1.16427-6.47541-1.5-9.78125c-0.14642-1.44181-0.1353-2.91546-0.21875-4.375h-151.15625zm0 53.25v35.0625h178.96875v-25.1875c-1.96442-2.00519-3.86801-4.08316-5.65625-6.25-0.96158-1.16517-1.81071-2.41569-2.71875-3.625h-170.59375zm403.14648 49.02344c-7.24011 0-13.96825 1.60114-20.11914 4.48437-5.89461 2.62695-12.55719 4.23047-19.54101 4.23047-6.91976 0-13.52022-1.60352-19.54297-4.23047l7.17773 31.78125c3.97245 1.08922 8.1365 1.60156 12.36524 1.60157 7.0479 0 13.6464-1.47462 19.54101-4.10157 6.08681-2.88323 12.87903-4.48437 20.11914-4.48437 7.17604 0 13.9038 1.60114 20.05469 4.48437 5.89461 2.62695 12.62128 4.10156 19.54102 4.10157 6.91976 0 13.52022-1.47462 19.54297-4.10157 6.02275-2.88323 12.94272-4.48437 20.05468-4.48437 7.11197 0 13.96629 1.60114 20.11719 4.48437 5.8946 2.62695 12.55914 4.10156 19.54297 4.10157v-29.15235c-7.0479 0-13.64837-1.60352-19.54297-4.23047-6.08683-2.88323-12.94114-4.48437-20.11719-4.48437-7.17603 0-14.03193 1.60114-20.05468 4.48437-6.02275 2.62695-12.62321 4.23047-19.54297 4.23047-6.91974 0-13.64641-1.60352-19.54102-4.23047-6.15089-2.88323-12.94272-4.48437-20.05469-4.48437zm-403.13867 4.16601v35.04688h178.95117v-35.04688h-178.95117zm403.13867 49.58985c-7.24011 0-13.96825 1.60308-20.11914 4.48633-5.89461 2.62695-12.55719 4.22851-19.54101 4.22851-2.62695 0-5.25391-0.25696-7.88086-0.76953l6.72656 29.92187h1.1543c7.0479 0 13.6464-1.47462 19.54101-4.10156 6.08681-2.88323 12.87903-4.48437 20.11914-4.48437 7.17604 0 13.9038 1.60114 20.05469 4.48437 5.89461 2.62694 12.62128 4.10156 19.54102 4.10156 6.91976 0 13.52022-1.47462 19.54297-4.10156 6.02275-2.88323 12.94272-4.48437 20.05468-4.48437 7.11197 0 13.96629 1.60114 20.11719 4.48437 5.8946 2.62694 12.55914 4.10156 19.54297 4.10156v-29.15234c-7.0479 0-13.64837-1.60157-19.54297-4.22851-6.08683-2.88325-12.94114-4.48633-20.11719-4.48633-7.17603 0-14.03193 1.60308-20.05468 4.48633-6.02275 2.62695-12.62321 4.22851-19.54297 4.22851-6.91974 0-13.64641-1.60157-19.54102-4.22851-6.15089-2.88325-12.94272-4.48633-20.05469-4.48633zm-403.13867 3.46093v35.04688h178.95117v-35.04688h-178.95117z"
         id="path30216" />
      <path
         d="m231.4375 0-28.78125 0.125v99.031254c2.69051-1.44923 5.44764-2.80148 8.28125-4 2.94125-1.24404 5.95199-2.35475 9.03125-3.3125s6.20546-1.75127 9.40625-2.40625 6.47541-1.16427 9.78125-1.5 6.66809-0.5 10.0625-0.5 6.72541 0.16427 10.03125 0.5 6.58046 0.84502 9.78125 1.5c0.0849 0.0174 0.16513 0.0449 0.25 0.0625l-17.90625-76.218754c-3.26766-7.752674-11.03152-13.28125-19.9375-13.28125zm17.76758 103.26367c-45.51471 0-82.50391 36.98921-82.50391 82.50391 0 45.51472 36.9892 82.5039 82.50391 82.5039s82.5039-36.98918 82.5039-82.5039c0-45.5147-36.98919-82.50391-82.5039-82.50391zm0 8.58203c40.87677 0 73.92187 33.04512 73.92187 73.92188 0 40.87678-33.0451 73.92187-73.92187 73.92187s-73.92188-33.04509-73.92188-73.92187c0-40.87676 33.04511-73.92188 73.92188-73.92188zm0 64.16602c-5.38171 0-9.75391 4.37415-9.75391 9.75586s4.3722 9.75586 9.75391 9.75586 9.75586-4.37415 9.75586-9.75586-4.37414-9.75586-9.75586-9.75586zm60.82617 86.92578c-1.91113 1.5087-3.82174 3.00895-5.84375 4.375-2.61581 1.76721-5.30698 3.42364-8.09375 4.9375s-5.68375 2.88096-8.625 4.125-5.95199 2.35475-9.03125 3.3125-6.20546 1.75127-9.40625 2.40625-6.47541 1.16427-9.78125 1.5-6.63684 0.5-10.03125 0.5-6.75666-0.16427-10.0625-0.5-6.58046-0.84502-9.78125-1.5-6.32699-1.4485-9.40625-2.40625-6.09-2.06846-9.03125-3.3125c-2.83346-1.19845-5.59088-2.51961-8.28125-3.96875v113.5h136.28125l-28.90625-122.96875z"
         id="path30218" />
    </symbol>
    <symbol
       viewBox="0 0 64 64"
       id="emoji-1f3db">
      <title
         id="title50445">1f3db</title>
      <g
         fill="#acb8bf"
         id="g50451">
        <path
           d="m2 60.13h60v1.875h-60z"
           id="path50447" />
        <path
           d="m5.5 56.38h53v1.875h-53z"
           id="path50449" />
      </g>
      <g
         fill="#dae3ea"
         id="g50457">
        <path
           d="m3.75 58.25h56.5v1.875h-56.5z"
           id="path50453" />
        <path
           d="m7.25 54.5h49.5v1.875h-49.5z"
           id="path50455" />
      </g>
      <path
         fill="#94989b"
         d="m4.813 27.769h54.38v1.877h-54.38z"
         id="path50459" />
      <path
         fill="#dae3ea"
         d="m2 29.646h60v1.877h-60z"
         id="path50461" />
      <path
         fill="#94989b"
         d="M31.989 4.84 2 21.235 4.512 24.989 31.989 6.691 59.49 24.989 62 21.235z"
         id="path50463" />
      <g
         fill="#dae3ea"
         id="g50469">
        <path
           d="M31.989 2 2 21.235 2 24.05 31.989 4.814 62 24.05 62 21.235z"
           id="path50465" />
        <path
           d="m31.989 6.691l-29.989 19.237v1.876h60v-1.876z"
           id="path50467" />
      </g>
      <path
         fill="#acb8bf"
         d="m31.989 9.482l-24.907 16.446h49.837z"
         id="path50471" />
      <g
         fill="#94989b"
         id="g50479">
        <path
           d="m32.754 22.644l-.402.231c-.041-.088-.125-.151-.225-.151h-.252c-.1 0-.185.063-.225.151l-.402-.231-.966-.553v1.105 1.105l.966-.553.402-.231c.04.09.125.152.225.152h.252c.098 0 .184-.063.225-.152l.402.231.964.553v-1.105-1.105l-.964.553"
           id="path50473" />
        <path
           d="m30.5 19.518c.162.253.387.437.648.564.262.125.557.188.853.188.296-.002.593-.063.853-.189.262-.126.488-.311.649-.563.035.295-.117.619-.402.847-.281.231-.69.366-1.098.365-.409.001-.817-.135-1.099-.366-.286-.227-.439-.551-.404-.846"
           id="path50475" />
        <path
           d="m36.27 16.564v-.081c0-.063-.006-.074-.041-.092-.059-.03-.12-.059-.182-.08-.047-.017-.098-.032-.152-.046-.648-1.51-2.148-2.567-3.897-2.567-1.747 0-3.248 1.058-3.896 2.567-.055.014-.105.029-.152.046-.063.021-.125.05-.182.08-.035.018-.043.029-.043.092v.081c0 .151-.018.093.09.155.037.021.069.047.098.079-.1.362-.153.744-.153 1.14 0 2.34 1.897 4.237 4.238 4.237 2.341 0 4.239-1.897 4.239-4.237 0-.396-.054-.777-.154-1.142.03-.03.063-.057.099-.077.108-.062.088-.003.088-.155m-4.272-2.364c1.426 0 2.667.798 3.295 1.972-.502-.046-1.061-.036-1.387-.008-.524.045-.963.163-1.321.347-.336.168-.839.168-1.174 0-.359-.184-.798-.302-1.322-.347-.325-.028-.883-.039-1.386.008.63-1.174 1.87-1.972 3.295-1.972m0 7.477c-2.063 0-3.739-1.674-3.739-3.738 0-.029.001-.056.001-.085.133.5.428.823.871.99.475.178 1.01.172 1.477-.017.26-.103.486-.266.666-.53.315-.464.22-.754.383-1.152.143-.346.541-.346.684 0 .162.399.068.688.383 1.152.18.265.408.428.666.53.472.188 1 .194 1.478.017.443-.167.738-.49.87-.99 0 .027.001.056.001.085-.001 2.063-1.676 3.738-3.741 3.738"
           id="path50477" />
      </g>
      <path
         fill="#dae3ea"
         d="m8.5 33.2h6v19.554h-6z"
         id="path50481" />
      <g
         fill="#94989b"
         id="g50487">
        <path
           d="m7.75 52.75h7.5v1.75h-7.5z"
           id="path50483" />
        <path
           d="m7.75 31.499h7.5v1.697h-7.5z"
           id="path50485" />
      </g>
      <g
         fill="#c8d0d6"
         id="g50497">
        <path
           d="m9.1 33.979h.708v18.04h-.708z"
           id="path50489" />
        <path
           d="m13.193 33.979h.708v18.04h-.708z"
           id="path50491" />
        <path
           d="m11.829 33.979h.707v18.04h-.707z"
           id="path50493" />
        <path
           d="m10.464 33.979h.707v18.04h-.707z"
           id="path50495" />
      </g>
      <path
         fill="#dae3ea"
         d="m22.17 33.2h6v19.615h-6z"
         id="path50499" />
      <g
         fill="#94989b"
         id="g50505">
        <path
           d="m21.417 52.812h7.5v1.688h-7.5z"
           id="path50501" />
        <path
           d="m21.417 31.499h7.5v1.697h-7.5z"
           id="path50503" />
      </g>
      <g
         fill="#c8d0d6"
         id="g50515">
        <path
           d="m22.766 33.979h.707v18.04h-.707z"
           id="path50507" />
        <path
           d="m26.86 33.979h.707v18.04h-.707z"
           id="path50509" />
        <path
           d="m25.495 33.979h.708v18.04h-.708z"
           id="path50511" />
        <path
           d="m24.13 33.979h.708v18.04h-.708z"
           id="path50513" />
      </g>
      <path
         fill="#dae3ea"
         d="m35.834 33.2h6v19.615h-6z"
         id="path50517" />
      <g
         fill="#94989b"
         id="g50523">
        <path
           d="m35.08 52.812h7.5v1.688h-7.5z"
           id="path50519" />
        <path
           d="m35.08 31.499h7.5v1.697h-7.5z"
           id="path50521" />
      </g>
      <g
         fill="#c8d0d6"
         id="g50533">
        <path
           d="m36.434 33.979h.707v18.04h-.707z"
           id="path50525" />
        <path
           d="m40.527 33.979h.707v18.04h-.707z"
           id="path50527" />
        <path
           d="m39.16 33.979h.708v18.04h-.708z"
           id="path50529" />
        <path
           d="m37.798 33.979h.708v18.04h-.708z"
           id="path50531" />
      </g>
      <path
         fill="#dae3ea"
         d="m49.5 33.2h6v19.554h-6z"
         id="path50535" />
      <g
         fill="#94989b"
         id="g50541">
        <path
           d="m48.751 52.75h7.5v1.75h-7.5z"
           id="path50537" />
        <path
           d="m48.751 31.499h7.5v1.697h-7.5z"
           id="path50539" />
      </g>
      <g
         fill="#c8d0d6"
         id="g50551">
        <path
           d="m50.1 33.979h.708v18.04h-.708z"
           id="path50543" />
        <path
           d="m54.19 33.979h.708v18.04h-.708z"
           id="path50545" />
        <path
           d="m52.829 33.979h.707v18.04h-.707z"
           id="path50547" />
        <path
           d="m51.47 33.979h.707v18.04h-.707z"
           id="path50549" />
      </g>
    </symbol>
    <symbol
       viewBox="0 0 64 64"
       id="emoji-1f4c5">
      <title
         id="title68053">1f4c5</title>
      <path
         fill="#ba9372"
         d="m58.1 19.593c-9.752-5.967-25.02-14.843-27.12-14.843-2.092 0-16.702 8.874-26.01 14.838l-.482-.857c2.392-1.533 23.469-14.981 26.493-14.981 3.02 0 25.08 13.443 27.585 14.976l-.466.867"
         id="path68055" />
      <path
         fill="#93a2aa"
         d="m62 56.791c0 1.635-1.22 2.959-2.726 2.959h-52.51c-1.506 0-2.728-1.324-2.728-2.959v-35.672c0-1.635 1.221-2.959 2.728-2.959h52.51c1.506 0 2.726 1.324 2.726 2.959v35.672"
         id="path68057" />
      <path
         fill="#ed4c5c"
         d="m59.96 21.12c0-1.635-1.222-2.959-2.728-2.959h-52.5c-1.507 0-2.728 1.324-2.728 2.959v9.456h57.96v-9.456"
         id="path68059" />
      <path
         fill="#d9e3e8"
         d="M2,30.574v26.217c0,1.635,1.221,2.959,2.728,2.959h52.505c1.506,0,2.728-1.324,2.728-2.959V30.574H2z"
         id="path68061" />
      <g
         fill="#93a2aa"
         id="g68139">
        <path
           d="m4.517 32.958h5.964v2.219h-5.964z"
           id="path68063" />
        <path
           d="m12.344 32.958h5.964v2.219h-5.964z"
           id="path68065" />
        <path
           d="m20.17 32.958h5.965v2.219h-5.965z"
           id="path68067" />
        <path
           d="m27.998 32.958h5.964v2.219h-5.964z"
           id="path68069" />
        <path
           d="m35.825 32.958h5.964v2.219h-5.964z"
           id="path68071" />
        <path
           d="m43.652 32.958h5.964v2.219h-5.964z"
           id="path68073" />
        <path
           d="m51.48 32.958h5.964v2.219h-5.964z"
           id="path68075" />
        <path
           d="m27.998 37.4h5.964v2.219h-5.964z"
           id="path68077" />
        <path
           d="m35.825 37.4h5.964v2.219h-5.964z"
           id="path68079" />
        <path
           d="m43.652 37.4h5.964v2.219h-5.964z"
           id="path68081" />
        <path
           d="m51.48 37.4h5.964v2.219h-5.964z"
           id="path68083" />
        <path
           d="m4.517 41.833h5.964v2.221h-5.964z"
           id="path68085" />
        <path
           d="m12.344 41.833h5.964v2.221h-5.964z"
           id="path68087" />
        <path
           d="m20.17 41.833h5.965v2.221h-5.965z"
           id="path68089" />
        <path
           d="m27.998 41.833h5.964v2.221h-5.964z"
           id="path68091" />
        <path
           d="m35.825 41.833h5.964v2.221h-5.964z"
           id="path68093" />
        <path
           d="m43.652 41.833h5.964v2.221h-5.964z"
           id="path68095" />
        <path
           d="m51.48 41.833h5.964v2.221h-5.964z"
           id="path68097" />
        <path
           d="m4.517 46.27h5.964v2.219h-5.964z"
           id="path68099" />
        <path
           d="m12.344 46.27h5.964v2.219h-5.964z"
           id="path68101" />
        <path
           d="m20.17 46.27h5.965v2.219h-5.965z"
           id="path68103" />
        <path
           d="m27.998 46.27h5.964v2.219h-5.964z"
           id="path68105" />
        <path
           d="m35.825 46.27h5.964v2.219h-5.964z"
           id="path68107" />
        <path
           d="m43.652 46.27h5.964v2.219h-5.964z"
           id="path68109" />
        <path
           d="m51.48 46.27h5.964v2.219h-5.964z"
           id="path68111" />
        <path
           d="m4.517 50.709h5.964v2.221h-5.964z"
           id="path68113" />
        <path
           d="m12.344 50.709h5.964v2.221h-5.964z"
           id="path68115" />
        <path
           d="m20.17 50.709h5.965v2.221h-5.965z"
           id="path68117" />
        <path
           d="m27.998 50.709h5.964v2.221h-5.964z"
           id="path68119" />
        <path
           d="m35.825 50.709h5.964v2.221h-5.964z"
           id="path68121" />
        <path
           d="m43.652 50.709h5.964v2.221h-5.964z"
           id="path68123" />
        <path
           d="m51.48 50.709h5.964v2.221h-5.964z"
           id="path68125" />
        <path
           d="m4.517 55.15h5.964v2.219h-5.964z"
           id="path68127" />
        <path
           d="m12.344 55.15h5.964v2.219h-5.964z"
           id="path68129" />
        <path
           d="m20.17 55.15h5.965v2.219h-5.965z"
           id="path68131" />
        <path
           d="m27.998 55.15h5.964v2.219h-5.964z"
           id="path68133" />
        <path
           d="m35.825 55.15h5.964v2.219h-5.964z"
           id="path68135" />
        <path
           d="m43.652 55.15h5.964v2.219h-5.964z"
           id="path68137" />
      </g>
      <ellipse
         fill="#333"
         cx="31.2"
         cy="6.25"
         rx="1.823"
         ry="1.945"
         id="ellipse68141" />
      <ellipse
         fill="#93a2aa"
         cx="30.98"
         cy="6.25"
         rx="1.824"
         ry="1.945"
         id="ellipse68143" />
      <g
         fill="#fff"
         id="g68153">
        <path
           d="m19.498 25.547v.18c.014.604.075 1.027.184 1.272.11.246.344.368.704.368.356 0 .591-.134.706-.402.069-.159.102-.427.102-.804v-5.455h1.607v5.428c0 .663-.11 1.188-.331 1.577-.375.656-1.05.984-2.026.984-.977 0-1.631-.265-1.965-.796-.333-.531-.5-1.255-.5-2.172v-.18h1.519"
           id="path68145" />
        <path
           d="m24.503 20.707h1.634v4.789c0 .536.063.927.187 1.174.194.437.617.656 1.269.656.647 0 1.069-.219 1.264-.656.124-.247.187-.638.187-1.174v-4.789h1.633v4.793c0 .829-.127 1.475-.38 1.937-.472.847-1.375 1.27-2.704 1.27-1.331 0-2.233-.423-2.71-1.27-.253-.462-.38-1.107-.38-1.937v-4.793"
           id="path68147" />
        <path
           d="m32.22 20.707h1.607v6.396h3.841v1.402h-5.448v-7.798"
           id="path68149" />
        <path
           d="m42.16 20.707h1.822l-2.573 4.875v2.924h-1.608v-2.924l-2.661-4.875h1.896l1.598 3.397 1.526-3.397"
           id="path68151" />
      </g>
    </symbol>
    <symbol
       viewBox="0 0 64 64"
       id="emoji-1f5d2">
      <title
         id="title73724">1f5d2</title>
      <path
         fill="#93a2aa"
         d="m60 58.24c0 2.07-1.728 3.749-3.86 3.749h-45.39c-2.133 0-3.86-1.679-3.86-3.749v-44.37c0-2.071 1.728-3.75 3.86-3.75h45.39c2.133 0 3.86 1.679 3.86 3.75v44.37"
         id="path73726" />
      <path
         fill="#f0f4f5"
         d="m57.11 58.24c0 2.07-1.73 3.749-3.863 3.749h-45.39c-2.133 0-3.862-1.678-3.862-3.749v-44.37c0-2.071 1.729-3.75 3.862-3.75h45.39c2.133 0 3.863 1.679 3.863 3.75v44.37"
         id="path73728" />
      <path
         fill="#93a2aa"
         d="m52.28 56.37c-6.38 6.191-17.98 5.619-17.98 5.619s8.488-2.453 16.334-11.729c5.866-6.936 6.481-15.289 6.481-15.289s3.523 13.286-4.835 21.399"
         id="path73730" />
      <g
         fill="#3e4347"
         id="g73748">
        <ellipse
           cx="13.07"
           cy="16.994"
           rx="2.897"
           ry="2.812"
           id="ellipse73732" />
        <ellipse
           cx="24.774"
           cy="16.994"
           rx="2.897"
           ry="2.812"
           id="ellipse73734" />
        <ellipse
           cx="36.34"
           cy="16.994"
           rx="2.896"
           ry="2.812"
           id="ellipse73736" />
        <ellipse
           cx="47.899"
           cy="16.994"
           rx="2.896"
           ry="2.812"
           id="ellipse73738" />
        <path
           d="m40.567 4.604c-.623-1.226-1.678-2.544-3.576-2.603-1.834-.058-1.855 2.091-.09 2.217.004.002.008.003.015.003-.052.008.409.31.265.164.424.43.643.867.852 1.353.606 1.407.773 2.905.785 4.379h2.889c-.013-1.848-.261-3.779-1.14-5.513m-3.624-.383c.012.003.026.007.046.011-.02-.003-.037-.008-.053-.011.002 0 .002 0 .007 0"
           id="path73740" />
        <path
           d="m29 4.604c-.62-1.226-1.676-2.544-3.574-2.603-1.836-.058-1.857 2.091-.09 2.217.002.002.009.003.012.003-.051.008.41.31.266.164.424.43.643.867.853 1.353.605 1.407.772 2.905.782 4.379h2.891c-.013-1.848-.263-3.779-1.14-5.513m-3.624-.383c.013.003.026.007.046.011-.02-.003-.037-.008-.05-.011 0 0 .003 0 .004 0"
           id="path73742" />
        <path
           d="m17.444 4.604c-.62-1.226-1.68-2.544-3.578-2.603-1.832-.058-1.854 2.091-.088 2.217.005.002.008.003.013.003-.051.008.41.31.266.164.425.43.642.867.854 1.353.603 1.407.771 2.905.781 4.379h2.891c-.014-1.848-.261-3.779-1.139-5.513m-3.626-.383c.014.003.027.007.047.011-.02-.003-.036-.008-.052-.011.002 0 .004 0 .005 0"
           id="path73744" />
        <path
           d="m52.13 4.604c-.621-1.226-1.678-2.544-3.576-2.603-1.833-.058-1.855 2.091-.088 2.217.002.002.008.003.01.003-.049.008.41.31.269.164.423.43.642.867.851 1.353.605 1.407.773 2.905.782 4.379h2.892c-.013-1.848-.263-3.779-1.14-5.513m-3.627-.383c.013.003.027.007.049.011-.021-.003-.037-.008-.053-.011.002 0 .004 0 .004 0"
           id="path73746" />
      </g>
      <g
         fill="#94989b"
         id="g73758">
        <path
           d="m36.34 16.01c-.334-.01.33.064.004-.007.336.073.08.022-.024-.026.359.169-.339-.302-.169-.128-.424-.43-.643-.866-.852-1.353-.604-1.407-.773-2.906-.783-4.379-.01-1.48.207-2.963.783-4.379.191-.468.408-.841.771-1.265.049-.057.125-.129.364-.288-.255.169-.002.021.069-.008-.193.059-.213.07-.067.034-.227.016-.257.019-.097.013 1.859-.058 1.866-2.282 0-2.223-1.923.06-2.919 1.381-3.575 2.603-.913 1.709-1.128 3.685-1.14 5.513-.012 1.84.266 3.788 1.14 5.513.622 1.226 1.679 2.545 3.575 2.604 1.867.058 1.86-2.166.001-2.224"
           id="path73750" />
        <path
           d="m24.775 16.01c-.337-.01.328.064.003-.007.334.073.079.022-.024-.026.356.169-.341-.302-.17-.128-.425-.43-.644-.866-.851-1.353-.605-1.407-.773-2.906-.783-4.379-.01-1.48.205-2.963.783-4.379.189-.468.406-.841.77-1.265.049-.057.127-.129.365-.288-.256.169-.003.021.068-.008-.191.059-.215.07-.064.034-.227.016-.26.019-.097.013 1.856-.058 1.863-2.282 0-2.223-1.923.06-2.923 1.381-3.576 2.603-.915 1.709-1.127 3.685-1.14 5.513-.012 1.84.266 3.788 1.14 5.513.62 1.226 1.677 2.545 3.576 2.604 1.864.058 1.857-2.166 0-2.224"
           id="path73752" />
        <path
           d="m13.212 16.01c-.336-.01.329.064.004-.007.338.073.079.022-.023-.026.357.169-.34-.302-.171-.128-.423-.43-.64-.866-.852-1.353-.606-1.407-.771-2.906-.783-4.379-.01-1.48.209-2.963.783-4.379.191-.468.409-.841.773-1.265.048-.057.124-.129.362-.288-.254.169-.002.021.068-.008-.191.059-.212.07-.063.034-.228.016-.26.019-.1.013 1.857-.058 1.865-2.282 0-2.223-1.922.06-2.921 1.381-3.575 2.603-.91 1.709-1.125 3.685-1.137 5.513-.013 1.84.266 3.788 1.139 5.513.622 1.226 1.679 2.545 3.575 2.604 1.865.058 1.857-2.166 0-2.224"
           id="path73754" />
        <path
           d="m47.897 16.01c-.334-.01.33.064.004-.007.336.073.08.022-.023-.026.357.169-.342-.302-.17-.128-.424-.43-.643-.866-.851-1.353-.606-1.407-.774-2.906-.784-4.379-.009-1.48.207-2.963.784-4.379.19-.468.405-.841.771-1.265.049-.057.127-.129.363-.288-.254.169-.001.021.07-.008-.192.059-.215.07-.066.034-.225.016-.258.019-.098.013 1.858-.058 1.865-2.282 0-2.223-1.922.06-2.922 1.381-3.574 2.603-.915 1.709-1.127 3.685-1.14 5.513-.013 1.84.267 3.788 1.14 5.513.621 1.226 1.677 2.545 3.574 2.604 1.866.058 1.859-2.166 0-2.224"
           id="path73756" />
      </g>
      <g
         fill="#7d8b91"
         id="g73768">
        <path
           d="m8.698 25.24h42.891v2.78h-42.891z"
           id="path73760" />
        <path
           d="m8.698 33.579h42.891v2.78h-42.891z"
           id="path73762" />
        <path
           d="m8.698 41.919h42.891v2.78h-42.891z"
           id="path73764" />
        <path
           d="m30.14 50.26h16.618v2.78h-16.618z"
           id="path73766" />
      </g>
      <path
         fill="#d7dadb"
         d="m57.11 34.969c0 12.889-9.579 27.02-22.815 27.02 0 0 5.371-2.98 5.371-13.936 15.09 0 17.444-13.08 17.444-13.08"
         id="path73770" />
    </symbol>
    <symbol
       viewBox="0 0 64 64"
       id="emoji-269b">
      <title
         id="title87575">269b</title>
      <g
         fill="#42ade2"
         id="g87583">
        <path
           d="m32 62c-8.937 0-15.937-13.178-15.937-30 0-16.822 7-30 15.937-30 8.938 0 15.938 13.178 15.938 30 0 16.822-7 30-15.938 30m0-58.12c-7.753 0-14.06 12.616-14.06 28.13 0 15.507 6.309 28.13 14.06 28.13 7.755 0 14.06-12.618 14.06-28.12 0-15.509-6.308-28.12-14.06-28.12"
           id="path87577" />
        <path
           d="m47.23 52.625c-7.199 0-15.946-2.444-23.999-6.707-7.563-4-13.805-9.174-17.576-14.559-3.89-5.555-4.711-10.713-2.31-14.524 2.217-3.521 6.981-5.46 13.416-5.46 7.198 0 15.945 2.444 23.998 6.707 7.563 4 13.806 9.174 17.576 14.557 3.891 5.555 4.711 10.715 2.312 14.526-2.217 3.521-6.982 5.46-13.417 5.46m-30.469-39.531c-5.736 0-9.925 1.633-11.792 4.6-2.034 3.226-1.229 7.749 2.264 12.737 3.613 5.16 9.627 10.13 16.936 13.999 7.776 4.117 16.182 6.476 23.06 6.476 5.737 0 9.925-1.633 11.793-4.6 2.031-3.226 1.227-7.749-2.266-12.736-3.612-5.16-9.627-10.131-16.937-13.999-7.776-4.118-16.181-6.477-23.06-6.477"
           id="path87579" />
        <path
           d="m16.768 52.625c-.001 0-.001 0-.002 0-6.435 0-11.199-1.941-13.417-5.46-2.4-3.811-1.579-8.971 2.312-14.526 3.771-5.383 10.01-10.554 17.576-14.557 8.05-4.263 16.8-6.707 23.999-6.707 6.435 0 11.199 1.939 13.416 5.46 2.399 3.811 1.579 8.969-2.312 14.524-3.771 5.385-10.01 10.556-17.576 14.559-8.05 4.259-16.799 6.707-23.996 6.707m30.467-39.531c-6.88 0-15.285 2.358-23.06 6.477-7.309 3.867-13.324 8.838-16.936 13.999-3.493 4.987-4.296 9.511-2.265 12.736 1.868 2.967 6.06 4.6 11.792 4.6h.002c6.879 0 15.282-2.358 23.06-6.476 7.31-3.869 13.324-8.839 16.936-13.999 3.493-4.988 4.297-9.51 2.266-12.737-1.868-2.966-6.05-4.6-11.792-4.6"
           id="path87581" />
      </g>
      <circle
         fill="#ed4c5c"
         cx="32"
         cy="32"
         r="5.625"
         id="circle87585" />
    </symbol>
    <symbol
       id="icon-building-o"
       viewBox="0 0 22 28">
      <title
         id="title11824">building-o</title>
      <path
         class="path1"
         d="M6 20.5v1c0 0.266-0.234 0.5-0.5 0.5h-1c-0.266 0-0.5-0.234-0.5-0.5v-1c0-0.266 0.234-0.5 0.5-0.5h1c0.266 0 0.5 0.234 0.5 0.5zM6 16.5v1c0 0.266-0.234 0.5-0.5 0.5h-1c-0.266 0-0.5-0.234-0.5-0.5v-1c0-0.266 0.234-0.5 0.5-0.5h1c0.266 0 0.5 0.234 0.5 0.5zM10 16.5v1c0 0.266-0.234 0.5-0.5 0.5h-1c-0.266 0-0.5-0.234-0.5-0.5v-1c0-0.266 0.234-0.5 0.5-0.5h1c0.266 0 0.5 0.234 0.5 0.5zM6 12.5v1c0 0.266-0.234 0.5-0.5 0.5h-1c-0.266 0-0.5-0.234-0.5-0.5v-1c0-0.266 0.234-0.5 0.5-0.5h1c0.266 0 0.5 0.234 0.5 0.5zM18 20.5v1c0 0.266-0.234 0.5-0.5 0.5h-1c-0.266 0-0.5-0.234-0.5-0.5v-1c0-0.266 0.234-0.5 0.5-0.5h1c0.266 0 0.5 0.234 0.5 0.5zM14 16.5v1c0 0.266-0.234 0.5-0.5 0.5h-1c-0.266 0-0.5-0.234-0.5-0.5v-1c0-0.266 0.234-0.5 0.5-0.5h1c0.266 0 0.5 0.234 0.5 0.5zM10 12.5v1c0 0.266-0.234 0.5-0.5 0.5h-1c-0.266 0-0.5-0.234-0.5-0.5v-1c0-0.266 0.234-0.5 0.5-0.5h1c0.266 0 0.5 0.234 0.5 0.5zM6 8.5v1c0 0.266-0.234 0.5-0.5 0.5h-1c-0.266 0-0.5-0.234-0.5-0.5v-1c0-0.266 0.234-0.5 0.5-0.5h1c0.266 0 0.5 0.234 0.5 0.5zM18 16.5v1c0 0.266-0.234 0.5-0.5 0.5h-1c-0.266 0-0.5-0.234-0.5-0.5v-1c0-0.266 0.234-0.5 0.5-0.5h1c0.266 0 0.5 0.234 0.5 0.5zM14 12.5v1c0 0.266-0.234 0.5-0.5 0.5h-1c-0.266 0-0.5-0.234-0.5-0.5v-1c0-0.266 0.234-0.5 0.5-0.5h1c0.266 0 0.5 0.234 0.5 0.5zM10 8.5v1c0 0.266-0.234 0.5-0.5 0.5h-1c-0.266 0-0.5-0.234-0.5-0.5v-1c0-0.266 0.234-0.5 0.5-0.5h1c0.266 0 0.5 0.234 0.5 0.5zM6 4.5v1c0 0.266-0.234 0.5-0.5 0.5h-1c-0.266 0-0.5-0.234-0.5-0.5v-1c0-0.266 0.234-0.5 0.5-0.5h1c0.266 0 0.5 0.234 0.5 0.5zM18 12.5v1c0 0.266-0.234 0.5-0.5 0.5h-1c-0.266 0-0.5-0.234-0.5-0.5v-1c0-0.266 0.234-0.5 0.5-0.5h1c0.266 0 0.5 0.234 0.5 0.5zM14 8.5v1c0 0.266-0.234 0.5-0.5 0.5h-1c-0.266 0-0.5-0.234-0.5-0.5v-1c0-0.266 0.234-0.5 0.5-0.5h1c0.266 0 0.5 0.234 0.5 0.5zM10 4.5v1c0 0.266-0.234 0.5-0.5 0.5h-1c-0.266 0-0.5-0.234-0.5-0.5v-1c0-0.266 0.234-0.5 0.5-0.5h1c0.266 0 0.5 0.234 0.5 0.5zM18 8.5v1c0 0.266-0.234 0.5-0.5 0.5h-1c-0.266 0-0.5-0.234-0.5-0.5v-1c0-0.266 0.234-0.5 0.5-0.5h1c0.266 0 0.5 0.234 0.5 0.5zM14 4.5v1c0 0.266-0.234 0.5-0.5 0.5h-1c-0.266 0-0.5-0.234-0.5-0.5v-1c0-0.266 0.234-0.5 0.5-0.5h1c0.266 0 0.5 0.234 0.5 0.5zM18 4.5v1c0 0.266-0.234 0.5-0.5 0.5h-1c-0.266 0-0.5-0.234-0.5-0.5v-1c0-0.266 0.234-0.5 0.5-0.5h1c0.266 0 0.5 0.234 0.5 0.5zM14 26h6v-24h-18v24h6v-3.5c0-0.266 0.234-0.5 0.5-0.5h5c0.266 0 0.5 0.234 0.5 0.5v3.5zM22 1v26c0 0.547-0.453 1-1 1h-20c-0.547 0-1-0.453-1-1v-26c0-0.547 0.453-1 1-1h20c0.547 0 1 0.453 1 1z"
         id="path11826" />
    </symbol>
    <symbol
       id="icon-laptop"
       viewBox="0 0 30 28">
      <title
         id="title11909">laptop</title>
      <path
         class="path1"
         d="M6.5 20c-1.375 0-2.5-1.125-2.5-2.5v-11c0-1.375 1.125-2.5 2.5-2.5h17c1.375 0 2.5 1.125 2.5 2.5v11c0 1.375-1.125 2.5-2.5 2.5h-17zM6 6.5v11c0 0.266 0.234 0.5 0.5 0.5h17c0.266 0 0.5-0.234 0.5-0.5v-11c0-0.266-0.234-0.5-0.5-0.5h-17c-0.266 0-0.5 0.234-0.5 0.5zM27.5 21h2.5v1.5c0 0.828-1.125 1.5-2.5 1.5h-25c-1.375 0-2.5-0.672-2.5-1.5v-1.5h27.5zM16.25 22.5c0.141 0 0.25-0.109 0.25-0.25s-0.109-0.25-0.25-0.25h-2.5c-0.141 0-0.25 0.109-0.25 0.25s0.109 0.25 0.25 0.25h2.5z"
         id="path11911" />
    </symbol>
    <symbol
       id="icon-history"
       viewBox="0 0 24 28">
      <title
         id="title12874">history</title>
      <path
         class="path1"
         d="M24 14c0 6.609-5.391 12-12 12-3.578 0-6.953-1.578-9.234-4.328-0.156-0.203-0.141-0.5 0.031-0.672l2.141-2.156c0.109-0.094 0.25-0.141 0.391-0.141 0.141 0.016 0.281 0.078 0.359 0.187 1.531 1.984 3.828 3.109 6.312 3.109 4.406 0 8-3.594 8-8s-3.594-8-8-8c-2.047 0-3.984 0.781-5.437 2.141l2.141 2.156c0.297 0.281 0.375 0.719 0.219 1.078-0.156 0.375-0.516 0.625-0.922 0.625h-7c-0.547 0-1-0.453-1-1v-7c0-0.406 0.25-0.766 0.625-0.922 0.359-0.156 0.797-0.078 1.078 0.219l2.031 2.016c2.203-2.078 5.187-3.313 8.266-3.313 6.609 0 12 5.391 12 12zM14 9.5v7c0 0.281-0.219 0.5-0.5 0.5h-5c-0.281 0-0.5-0.219-0.5-0.5v-1c0-0.281 0.219-0.5 0.5-0.5h3.5v-5.5c0-0.281 0.219-0.5 0.5-0.5h1c0.281 0 0.5 0.219 0.5 0.5z"
         id="path12876" />
    </symbol>
  </defs>
  <sodipodi:namedview
     id="base"
     pagecolor="#ffffff"
     bordercolor="#666666"
     borderopacity="1.0"
     inkscape:pageopacity="0.0"
     inkscape:pageshadow="2"
     inkscape:zoom="0.7"
     inkscape:cx="561.9328"
     inkscape:cy="381.8416"
     inkscape:document-units="px"
     inkscape:current-layer="layer3"
     showgrid="false"
     width="1024mm"
     units="px"
     inkscape:window-width="1920"
     inkscape:window-height="1027"
     inkscape:window-x="1440"
     inkscape:window-y="25"
     inkscape:window-maximized="1" />
  <metadata
     id="metadata5">
    <rdf:RDF>
      <cc:Work
         rdf:about="">
        <dc:format>image/svg+xml</dc:format>
        <dc:type
           rdf:resource="http://purl.org/dc/dcmitype/StillImage" />
        <dc:title></dc:title>
      </cc:Work>
    </rdf:RDF>
  </metadata>
  <g
     inkscape:label="Capa 1"
     inkscape:groupmode="layer"
     id="layer1"
     transform="translate(0,-93.80001)"
     style="display:inline">
    <rect
       style="opacity:1;fill:#e1e3d4;fill-opacity:1;stroke:none;stroke-width:0.25749919;stroke-linecap:round;stroke-linejoin:round;stroke-miterlimit:4;stroke-dasharray:none;stroke-dashoffset:0;stroke-opacity:1"
       id="rect90369"
       width="278.49484"
       height="208.47023"
       x="-1.8708864"
       y="90.667931"
       sodipodi:insensitive="true" />
  </g>
  <g
     inkscape:groupmode="layer"
     id="layer2"
     inkscape:label="Capa 2"
     style="display:inline;opacity:1">
    <g
       id="g141385"
       transform="matrix(1.0571844,0,0,1.0571844,-12.090162,-7.3734866)">
      <g
         transform="translate(-61.988095,-3.0238095)"
         id="g141365">
        <ellipse
           style="opacity:1;fill:none;fill-opacity:1;stroke:#455762;stroke-width:0.92897058;stroke-linecap:round;stroke-linejoin:round;stroke-miterlimit:4;stroke-dasharray:none;stroke-dashoffset:0;stroke-opacity:1"
           id="path141356"
           cx="107.42081"
           cy="41.086002"
           rx="9.4876261"
           ry="28.953402" />
        <ellipse
           ry="28.953402"
           rx="9.4876261"
           cy="-71.074066"
           cx="90.348984"
           id="ellipse141358"
           style="opacity:1;fill:none;fill-opacity:1;stroke:#455762;stroke-width:0.92897058;stroke-linecap:round;stroke-linejoin:round;stroke-miterlimit:4;stroke-dasharray:none;stroke-dashoffset:0;stroke-opacity:1"
           transform="rotate(58.729213)" />
        <ellipse
           transform="matrix(-0.51908339,0.8547236,0.8547236,0.51908339,0,0)"
           style="opacity:1;fill:none;fill-opacity:1;stroke:#455762;stroke-width:0.92897058;stroke-linecap:round;stroke-linejoin:round;stroke-miterlimit:4;stroke-dasharray:none;stroke-dashoffset:0;stroke-opacity:1"
           id="ellipse141360"
           cx="-20.954611"
           cy="113.21805"
           rx="9.4876261"
           ry="28.953402" />
      </g>
      <circle
         r="2.6458333"
         cy="26.307093"
         cx="45.054741"
         id="path141367"
         style="opacity:1;fill:#ff0000;fill-opacity:1;stroke:#455762;stroke-width:0;stroke-linecap:round;stroke-linejoin:round;stroke-miterlimit:4;stroke-dasharray:none;stroke-dashoffset:0;stroke-opacity:1" />
      <circle
         style="opacity:1;fill:#ff0000;fill-opacity:1;stroke:#455762;stroke-width:0;stroke-linecap:round;stroke-linejoin:round;stroke-miterlimit:4;stroke-dasharray:none;stroke-dashoffset:0;stroke-opacity:1"
         id="circle141369"
         cx="60.929756"
         cy="37.419601"
         r="2.6458333" />
      <circle
         r="2.6458333"
         cy="48.38092"
         cx="45.281525"
         id="circle141371"
         style="opacity:1;fill:#ff0000;fill-opacity:1;stroke:#455762;stroke-width:0;stroke-linecap:round;stroke-linejoin:round;stroke-miterlimit:4;stroke-dasharray:none;stroke-dashoffset:0;stroke-opacity:1" />
      <circle
         style="opacity:1;fill:#ff0000;fill-opacity:1;stroke:#455762;stroke-width:0;stroke-linecap:round;stroke-linejoin:round;stroke-miterlimit:4;stroke-dasharray:none;stroke-dashoffset:0;stroke-opacity:1"
         id="circle141373"
         cx="29.028534"
         cy="37.117226"
         r="2.6458333" />
    </g>
  </g>
  <g
     inkscape:groupmode="layer"
     id="layer3"
     inkscape:label="Capa 3"
     style="display:inline">
    <use
       id="use143449"
       xlink:href="#icon-laptop"
       x="0"
       y="0"
       width="100%"
       height="100%"
       transform="matrix(0.35312897,0,0,0.35312897,92.992442,-3.7185673)"
       style="display:inline;opacity:1;fill:#455762;fill-opacity:1" />
    <use
       id="use144135"
       xlink:href="#icon-history"
       x="0"
       y="0"
       width="100%"
       height="100%"
       transform="matrix(-0.10399305,0,0,0.10399305,154.46871,14.985292)"
       style="fill:#ff0000" />
  </g>
  <g
     inkscape:groupmode="layer"
     id="layer4"
     inkscape:label="Capa 4"
     style="display:inline">
    <use
       id="use105332"
       style="display:inline;opacity:1;fill:#455762;fill-opacity:1;stroke:none"
       xlink:href="#calendar-alt"
       transform="matrix(0.28561283,0,0,0.28561283,201.70739,0.94155744)"
       x="0"
       y="0"
       width="100%"
       height="100%" />
  </g>
  <g
     inkscape:groupmode="layer"
     id="layer5"
     inkscape:label="Capa 5"
     style="display:inline">
    <use
       style="display:inline;fill:#455762;fill-opacity:1"
       id="use143424"
       xlink:href="#icon-building-o"
       x="0"
       y="0"
       width="100%"
       height="100%"
       transform="matrix(0.27971337,0,0,0.27971337,202.51576,127.80003)" />
  </g>
  <g
     inkscape:groupmode="layer"
     id="layer6"
     inkscape:label="Capa 6">
    <g
       id="g143517"
       transform="matrix(0.99364184,0,0,0.99364184,-2.1405086,-3.6021399)">
      <use
         height="100%"
         width="100%"
         y="0"
         x="0"
         transform="matrix(0.23516385,0,0,0.23516385,86.780664,131.82557)"
         xlink:href="#groups"
         style="display:inline;opacity:1;fill:#455762;fill-opacity:1;stroke:none"
         id="use105409" />
      <use
         id="use143475"
         style="display:inline;opacity:1;fill:#455762;fill-opacity:1;stroke:none"
         xlink:href="#groups"
         transform="matrix(0.23516385,0,0,0.23516385,126.32204,131.9754)"
         x="0"
         y="0"
         width="100%"
         height="100%" />
    </g>
  </g>
  <g
     inkscape:groupmode="layer"
     id="layer7"
     inkscape:label="Capa 7">
    <use
       id="use105447"
       style="display:inline;opacity:1;fill:#455762;fill-opacity:1;stroke:none"
       xlink:href="#welcome-learn-more"
       transform="matrix(0.26988092,0,0,0.26988092,0.33628598,125.92193)"
       x="0"
       y="0"
       width="100%"
       height="100%" />
  </g>
  <g
     inkscape:groupmode="layer"
     id="layer8"
     inkscape:label="Capa 8"
     style="display:inline">
    <g
       id="g143495"
       transform="matrix(1.0571844,0,0,1.0571844,-4.5002673,-4.8184334)">
      <rect
         y="31.339407"
         x="74.69059"
         height="4.4440022"
         width="19.673758"
         id="rect143487"
         style="opacity:1;fill:#aca793;fill-opacity:1;stroke:#455762;stroke-width:0;stroke-linecap:round;stroke-linejoin:round;stroke-miterlimit:4;stroke-dasharray:none;stroke-dashoffset:0;stroke-opacity:1" />
      <path
         transform="matrix(0.71217253,0,0,1,26.703726,0.13363415)"
         inkscape:transform-center-y="-2.0842621e-06"
         inkscape:transform-center-x="-0.88174324"
         d="m 92.776851,37.800549 0,-8.577813 7.428599,4.288906 z"
         inkscape:randomized="0"
         inkscape:rounded="0"
         inkscape:flatsided="true"
         sodipodi:arg2="3.1415927"
         sodipodi:arg1="2.0943951"
         sodipodi:r2="2.4762006"
         sodipodi:r1="4.9524021"
         sodipodi:cy="33.511642"
         sodipodi:cx="95.253052"
         sodipodi:sides="3"
         id="path143491"
         style="opacity:1;fill:#aca793;fill-opacity:1;stroke:#455762;stroke-width:0;stroke-linecap:round;stroke-linejoin:round;stroke-miterlimit:4;stroke-dasharray:none;stroke-dashoffset:0;stroke-opacity:1"
         sodipodi:type="star" />
    </g>
    <g
       id="g143501"
       transform="matrix(1.0571844,0,0,1.0571844,103.90747,-4.8184334)">
      <rect
         style="opacity:1;fill:#aca793;fill-opacity:1;stroke:#455762;stroke-width:0;stroke-linecap:round;stroke-linejoin:round;stroke-miterlimit:4;stroke-dasharray:none;stroke-dashoffset:0;stroke-opacity:1"
         id="rect143497"
         width="19.673758"
         height="4.4440022"
         x="74.69059"
         y="31.339407" />
      <path
         sodipodi:type="star"
         style="opacity:1;fill:#aca793;fill-opacity:1;stroke:#455762;stroke-width:0;stroke-linecap:round;stroke-linejoin:round;stroke-miterlimit:4;stroke-dasharray:none;stroke-dashoffset:0;stroke-opacity:1"
         id="path143499"
         sodipodi:sides="3"
         sodipodi:cx="95.253052"
         sodipodi:cy="33.511642"
         sodipodi:r1="4.9524021"
         sodipodi:r2="2.4762006"
         sodipodi:arg1="2.0943951"
         sodipodi:arg2="3.1415927"
         inkscape:flatsided="true"
         inkscape:rounded="0"
         inkscape:randomized="0"
         d="m 92.776851,37.800549 0,-8.577813 7.428599,4.288906 z"
         inkscape:transform-center-x="-0.88174324"
         inkscape:transform-center-y="-2.0842621e-06"
         transform="matrix(0.71217253,0,0,1,26.703726,0.13363415)" />
    </g>
    <g
       transform="matrix(0,1.0571844,-1.0571844,0,274.75011,7.9244282)"
       id="g143507">
      <rect
         y="31.339407"
         x="74.69059"
         height="4.4440022"
         width="19.673758"
         id="rect143503"
         style="opacity:1;fill:#aca793;fill-opacity:1;stroke:#455762;stroke-width:0;stroke-linecap:round;stroke-linejoin:round;stroke-miterlimit:4;stroke-dasharray:none;stroke-dashoffset:0;stroke-opacity:1" />
      <path
         transform="matrix(0.71217253,0,0,1,26.703726,0.13363415)"
         inkscape:transform-center-y="-2.0842621e-06"
         inkscape:transform-center-x="-0.88174324"
         d="m 92.776851,37.800549 0,-8.577813 7.428599,4.288906 z"
         inkscape:randomized="0"
         inkscape:rounded="0"
         inkscape:flatsided="true"
         sodipodi:arg2="3.1415927"
         sodipodi:arg1="2.0943951"
         sodipodi:r2="2.4762006"
         sodipodi:r1="4.9524021"
         sodipodi:cy="33.511642"
         sodipodi:cx="95.253052"
         sodipodi:sides="3"
         id="path143505"
         style="opacity:1;fill:#aca793;fill-opacity:1;stroke:#455762;stroke-width:0;stroke-linecap:round;stroke-linejoin:round;stroke-miterlimit:4;stroke-dasharray:none;stroke-dashoffset:0;stroke-opacity:1"
         sodipodi:type="star" />
    </g>
    <g
       id="g143513"
       transform="matrix(-1.0571844,0,0,-1.0571844,285.4256,189.31636)">
      <rect
         style="opacity:1;fill:#aca793;fill-opacity:1;stroke:#455762;stroke-width:0;stroke-linecap:round;stroke-linejoin:round;stroke-miterlimit:4;stroke-dasharray:none;stroke-dashoffset:0;stroke-opacity:1"
         id="rect143509"
         width="19.673758"
         height="4.4440022"
         x="74.69059"
         y="31.339407" />
      <path
         sodipodi:type="star"
         style="opacity:1;fill:#aca793;fill-opacity:1;stroke:#455762;stroke-width:0;stroke-linecap:round;stroke-linejoin:round;stroke-miterlimit:4;stroke-dasharray:none;stroke-dashoffset:0;stroke-opacity:1"
         id="path143511"
         sodipodi:sides="3"
         sodipodi:cx="95.253052"
         sodipodi:cy="33.511642"
         sodipodi:r1="4.9524021"
         sodipodi:r2="2.4762006"
         sodipodi:arg1="2.0943951"
         sodipodi:arg2="3.1415927"
         inkscape:flatsided="true"
         inkscape:rounded="0"
         inkscape:randomized="0"
         d="m 92.776851,37.800549 0,-8.577813 7.428599,4.288906 z"
         inkscape:transform-center-x="-0.88174324"
         inkscape:transform-center-y="-2.0842621e-06"
         transform="matrix(0.71217253,0,0,1,26.703726,0.13363415)" />
    </g>
    <g
       transform="matrix(-1.0571844,0,0,-1.0571844,167.94612,189.31636)"
       id="g143523">
      <rect
         y="31.339407"
         x="74.69059"
         height="4.4440022"
         width="19.673758"
         id="rect143519"
         style="opacity:1;fill:#aca793;fill-opacity:1;stroke:#455762;stroke-width:0;stroke-linecap:round;stroke-linejoin:round;stroke-miterlimit:4;stroke-dasharray:none;stroke-dashoffset:0;stroke-opacity:1" />
      <path
         transform="matrix(0.71217253,0,0,1,26.703726,0.13363415)"
         inkscape:transform-center-y="-2.0842621e-06"
         inkscape:transform-center-x="-0.88174324"
         d="m 92.776851,37.800549 0,-8.577813 7.428599,4.288906 z"
         inkscape:randomized="0"
         inkscape:rounded="0"
         inkscape:flatsided="true"
         sodipodi:arg2="3.1415927"
         sodipodi:arg1="2.0943951"
         sodipodi:r2="2.4762006"
         sodipodi:r1="4.9524021"
         sodipodi:cy="33.511642"
         sodipodi:cx="95.253052"
         sodipodi:sides="3"
         id="path143521"
         style="opacity:1;fill:#aca793;fill-opacity:1;stroke:#455762;stroke-width:0;stroke-linecap:round;stroke-linejoin:round;stroke-miterlimit:4;stroke-dasharray:none;stroke-dashoffset:0;stroke-opacity:1"
         sodipodi:type="star" />
    </g>
  </g>
  <g
     inkscape:groupmode="layer"
     id="layer9"
     inkscape:label="Capa 9">
    <text
       xml:space="preserve"
       style="font-style:normal;font-variant:normal;font-weight:normal;font-stretch:normal;font-size:11.93443775px;line-height:1.25;font-family:Ubuntu;-inkscape-font-specification:Ubuntu;letter-spacing:0px;word-spacing:0px;fill:#455762;fill-opacity:1;stroke:none;stroke-width:0.27971336"
       x="23.352352"
       y="74.842834"
       id="text143528"><tspan
         sodipodi:role="line"
         id="tspan143526"
         x="23.352352"
         y="74.842834"
         style="font-size:8.46666622px;fill:#455762;fill-opacity:1;stroke-width:0.27971336">Teora</tspan></text>
    <text
       id="text143538"
       y="74.842834"
       x="120.32946"
       style="font-style:normal;font-variant:normal;font-weight:normal;font-stretch:normal;font-size:11.93443775px;line-height:1.25;font-family:Ubuntu;-inkscape-font-specification:Ubuntu;letter-spacing:0px;word-spacing:0px;fill:#455762;fill-opacity:1;stroke:none;stroke-width:0.27971336"
       xml:space="preserve"><tspan
         style="font-size:8.46666622px;fill:#455762;fill-opacity:1;stroke-width:0.27971336"
         y="74.842834"
         x="120.32946"
         id="tspan143536"
         sodipodi:role="line">Asncrono</tspan></text>
    <text
       xml:space="preserve"
       style="font-style:normal;font-variant:normal;font-weight:normal;font-stretch:normal;font-size:11.93443775px;line-height:1.25;font-family:Ubuntu;-inkscape-font-specification:Ubuntu;letter-spacing:0px;word-spacing:0px;fill:#455762;fill-opacity:1;stroke:none;stroke-width:0.27971336"
       x="216.42989"
       y="74.842834"
       id="text143542"><tspan
         sodipodi:role="line"
         id="tspan143540"
         x="216.42989"
         y="74.842834"
         style="font-size:8.46666622px;fill:#455762;fill-opacity:1;stroke-width:0.27971336">Vencimiento</tspan></text>
    <text
       id="text143546"
       y="197.29697"
       x="219.87718"
       style="font-style:normal;font-variant:normal;font-weight:normal;font-stretch:normal;font-size:11.93443775px;line-height:1.25;font-family:Ubuntu;-inkscape-font-specification:Ubuntu;letter-spacing:0px;word-spacing:0px;fill:#455762;fill-opacity:1;stroke:none;stroke-width:0.27971336"
       xml:space="preserve"><tspan
         style="font-size:8.46666622px;fill:#455762;fill-opacity:1;stroke-width:0.27971336"
         y="197.29697"
         x="219.87718"
         id="tspan143544"
         sodipodi:role="line">Aula Fsica</tspan></text>
    <text
       xml:space="preserve"
       style="font-style:normal;font-variant:normal;font-weight:normal;font-stretch:normal;font-size:11.93443775px;line-height:1.25;font-family:Ubuntu;-inkscape-font-specification:Ubuntu;letter-spacing:0px;word-spacing:0px;fill:#455762;fill-opacity:1;stroke:none;stroke-width:0.27971336"
       x="104.54441"
       y="182.75191"
       id="text143550"><tspan
         sodipodi:role="line"
         id="tspan143548"
         x="104.54441"
         y="182.75191"
         style="font-size:8.46666622px;fill:#455762;fill-opacity:1;stroke-width:0.27971336">Foros, Grupos...</tspan></text>
    <text
       id="text143554"
       y="185.98868"
       x="3.7698812"
       style="font-style:normal;font-variant:normal;font-weight:normal;font-stretch:normal;font-size:11.93443775px;line-height:1.25;font-family:Ubuntu;-inkscape-font-specification:Ubuntu;letter-spacing:0px;word-spacing:0px;fill:#455762;fill-opacity:1;stroke:none;stroke-width:0.27971336"
       xml:space="preserve"><tspan
         style="font-size:8.46666622px;fill:#455762;fill-opacity:1;stroke-width:0.27971336"
         y="185.98868"
         x="3.7698812"
         id="tspan143552"
         sodipodi:role="line">Blended Learning</tspan></text>
  </g>
</svg>
