<?xml version="1.0" encoding="UTF-8" standalone="no"?>
<svg
   xmlns:dc="http://purl.org/dc/elements/1.1/"
   xmlns:cc="http://creativecommons.org/ns#"
   xmlns:rdf="http://www.w3.org/1999/02/22-rdf-syntax-ns#"
   xmlns:svg="http://www.w3.org/2000/svg"
   xmlns="http://www.w3.org/2000/svg"
   id="svg132579"
   version="1.1"
   viewBox="0 0 270.93333 203.20001"
   height="768"
   width="1024">
  <defs
     id="defs132573" />
  <metadata
     id="metadata132576">
    <rdf:RDF>
      <cc:Work
         rdf:about="">
        <dc:format>image/svg+xml</dc:format>
        <dc:type
           rdf:resource="http://purl.org/dc/dcmitype/StillImage" />
        <dc:title></dc:title>
      </cc:Work>
    </rdf:RDF>
  </metadata>
  <g
     transform="translate(0,-93.799984)"
     id="layer1">
    <g
       style="fill:#999999"
       transform="matrix(-0.98078586,-0.98078586,-0.98078586,0.98078586,916.41281,-437.26105)"
       id="g132571">
      <g
         style="fill:#999999"
         id="g26390"
         transform="translate(75.2471,747.8525)">
        <path
           d="m 0,0 c -0.026,-1.869 -2.411,-4.353 -3.935,-2.789 0,0 -1.193,1.883 0.29,3.406 C -2.161,2.138 0.024,1.862 0,0 m -6.369,-20.292 c 0,0 2.381,1.593 4.556,0.427 2.273,-1.221 2.227,-5 0.912,-5.967 -0.987,-1.304 -4.77,-1.302 -5.957,0.991 -1.137,2.189 0.489,4.549 0.489,4.549 m -16.318,18.257 c 0,-1.075 -0.871,-1.946 -1.949,-1.946 -1.076,0 -1.946,0.871 -1.946,1.946 0,1.078 0.87,1.949 1.946,1.949 1.078,0 1.949,-0.871 1.949,-1.949 m -4.058,-24.348 c -1.867,0 -2.112,2.191 -0.571,3.649 1.545,1.463 3.412,0.245 3.412,0.245 1.542,-1.542 -0.976,-3.894 -2.841,-3.894 M 1.237,1.443 C 0.46,3.97 -3.036,3.611 -4.78,0.794 -6.138,-1.405 -5.676,-3.917 -5.405,-4.917 -5.712,-5.8 -6.14,-7.485 -6.228,-10.145 c -0.115,-3.547 0.682,-7.153 0.94,-8.216 -0.526,-0.103 -0.964,-0.259 -1.285,-0.407 l -15.145,14.83 c 0.36,0.548 0.573,1.2 0.573,1.903 0,1.93 -1.561,3.491 -3.491,3.491 -1.927,0 -3.49,-1.561 -3.49,-3.491 0,-1.927 1.563,-3.488 3.49,-3.488 0.819,0 1.561,0.292 2.154,0.764 l 14.588,-15.31 c -0.154,-0.318 -0.313,-0.755 -0.421,-1.282 -1.059,0.275 -4.655,1.123 -8.204,1.055 -2.66,-0.052 -4.347,-0.456 -5.236,-0.751 -0.998,0.284 -3.504,0.783 -5.721,-0.549 -2.841,-1.703 -3.248,-5.196 -0.73,-6.007 2.139,-0.689 7.65,1.979 6.988,5.936 0.908,0.211 2.42,0.428 4.861,0.478 3.337,0.067 6.891,-1.517 7.954,-2.03 0.033,-0.311 0.079,-0.631 0.165,-0.973 0.059,-0.241 0.17,-0.434 0.256,-0.647 0.016,-1.576 -0.281,-7.351 -5.533,-8.121 0,0 4.939,-0.843 7.653,5.763 1.705,-0.894 3.988,-0.918 5.996,-0.32 0.508,-0.519 1.287,-1.454 1.287,-2.275 0,-1.22 -1.461,-2.519 -1.461,-2.519 0,0 3.615,0.755 9.518,-4.048 -4.721,5.969 -3.918,9.573 -3.918,9.573 0,0 -1.319,-1.443 -2.536,-1.427 -0.825,0.012 -1.749,0.803 -2.259,1.318 0.626,2 0.631,4.284 -0.239,6.003 6.645,2.619 5.866,7.57 5.866,7.57 -0.84,-5.239 -6.616,-5.459 -8.192,-5.42 -0.213,0.09 -0.406,0.203 -0.643,0.265 -0.342,0.09 -0.662,0.142 -0.974,0.179 -0.498,1.068 -2.034,4.643 -1.92,7.978 0.084,2.442 0.32,3.949 0.543,4.855 3.949,-0.718 6.691,4.759 6.031,6.908"
           style="fill:#999999;fill-opacity:1;fill-rule:nonzero;stroke:none"
           id="path26392" />
      </g>
      <g
         style="fill:#999999"
         id="g26394"
         transform="translate(71.3926,725.5962)">
        <path
           d="m 0,0 c 0.104,0.035 0.209,0.06 0.323,0.06 0.4,-0.006 0.739,-0.253 0.882,-0.6 L 1.211,-0.578 C 1.249,-0.684 1.275,-0.793 1.273,-0.912 L 1.249,-1.038 1.195,-1.286 1.1,-1.428 0.988,-1.587 0.794,-1.718 0.682,-1.791 0.404,-1.848 0.311,-1.864 c -0.122,0 -0.237,0.027 -0.342,0.066 l -0.031,0.009 c -0.333,0.14 -0.563,0.467 -0.581,0.845 l -0.008,0.046 0.057,0.277 0.022,0.097 0.121,0.18 0.086,0.127 0.117,0.077 0.195,0.129 z M 0.342,1.359 0.332,1.357 0.313,1.359 0.031,1.334 -0.125,1.314 -0.379,1.241 -0.553,1.187 -0.762,1.075 -0.939,0.981 -1.105,0.846 -1.275,0.706 -1.4,0.562 -1.557,0.372 -1.64,0.222 -1.768,-0.011 -1.812,-0.152 -1.9,-0.438 -1.915,-0.559 c -0.017,-0.103 -0.034,-0.207 -0.036,-0.314 l 0.002,-0.021 v -0.009 l 0.006,-0.084 c 0.006,-0.124 0.014,-0.249 0.039,-0.367 l 0.015,-0.048 c 0.03,-0.131 0.067,-0.258 0.116,-0.381 l 0.006,-0.01 c 0.343,-0.799 1.124,-1.359 2.047,-1.375 l 0.032,0.005 h 0.001 l 0.015,0.002 c 0.151,0 0.296,0.015 0.438,0.043 l 0.048,0.014 c 0.129,0.031 0.254,0.065 0.372,0.115 l 0.095,0.051 0.287,0.155 0.129,0.103 0.203,0.168 0.149,0.174 0.129,0.157 0.14,0.256 0.068,0.12 c 0.048,0.109 0.079,0.222 0.109,0.334 l 0.026,0.088 c 0.03,0.129 0.042,0.263 0.046,0.399 l 0.005,0.048 v 0.005 l 0.004,0.028 c 0,0.137 -0.018,0.269 -0.041,0.4 L 2.533,-0.477 C 2.504,-0.329 2.461,-0.19 2.408,-0.054 L 2.407,-0.052 C 2.297,0.218 2.137,0.461 1.938,0.667 L 1.932,0.674 C 1.838,0.773 1.734,0.858 1.623,0.937 L 1.601,0.955 C 1.496,1.028 1.381,1.091 1.266,1.145 L 1.217,1.17 C 1.107,1.218 0.992,1.25 0.877,1.282 L 0.791,1.308 C 0.682,1.332 0.57,1.34 0.459,1.345 Z"
           style="fill:#999999;fill-opacity:1;fill-rule:nonzero;stroke:none"
           id="path26396" />
      </g>
      <g
         style="fill:#999999"
         id="g26398"
         transform="translate(104.1816,696.1157)">
        <path
           d="m 0,0 c 2.394,0 4.331,-1.937 4.331,-4.329 0,-0.179 -0.017,-0.355 -0.036,-0.531 -0.176,1.514 -1.488,2.697 -3.103,2.697 -1.735,0 -3.139,-1.358 -3.139,-3.03 0,-1.676 1.404,-3.031 3.139,-3.031 0.359,0 0.699,0.071 1.017,0.176 C 1.562,-8.433 0.812,-8.656 0,-8.656 c -2.391,0 -4.328,1.937 -4.328,4.327 C -4.328,-1.937 -2.391,0 0,0"
           style="fill:#999999;fill-opacity:1;fill-rule:nonzero;stroke:none"
           id="path26400" />
      </g>
      <g
         style="fill:#999999"
         id="g26402"
         transform="translate(170.417,751.9604)">
        <path
           d="M 0,0 C 0,0.957 0.776,1.733 1.732,1.733 2.688,1.733 3.464,0.957 3.464,0 3.464,-0.955 2.688,-1.731 1.732,-1.731 0.776,-1.731 0,-0.955 0,0 m -1.298,0 c 0,-1.673 1.356,-3.03 3.03,-3.03 1.673,0 3.031,1.357 3.031,3.03 0,1.675 -1.358,3.03 -3.031,3.03 -1.674,0 -3.03,-1.355 -3.03,-3.03"
           style="fill:#999999;fill-opacity:1;fill-rule:nonzero;stroke:none"
           id="path26404" />
      </g>
      <g
         style="fill:#999999"
         id="g26406"
         transform="translate(42.5342,624.1157)">
        <path
           d="M 0,0 C 0,0.955 0.773,1.732 1.73,1.732 2.687,1.732 3.464,0.955 3.464,0 3.464,-0.957 2.687,-1.731 1.73,-1.731 0.773,-1.731 0,-0.957 0,0 m -1.3,0 c 0,-1.674 1.358,-3.03 3.03,-3.03 1.673,0 3.031,1.356 3.031,3.03 0,1.673 -1.358,3.028 -3.031,3.028 C 0.058,3.028 -1.3,1.673 -1.3,0"
           style="fill:#999999;fill-opacity:1;fill-rule:nonzero;stroke:none"
           id="path26408" />
      </g>
      <g
         style="fill:#999999"
         id="g26410"
         transform="translate(39.7168,624.1157)">
        <path
           d="M 0,0 C 0,2.51 2.037,4.544 4.548,4.544 7.059,4.544 9.094,2.51 9.094,0 9.094,-2.513 7.059,-4.545 4.548,-4.545 2.037,-4.545 0,-2.513 0,0 M 14.342,10.347 C 11.453,12.048 9.23,13.863 7.948,15.01 l 4.827,5.336 c 2.11,-1.46 3.354,-2.542 6.439,-4.493 -2.007,-2.542 -4.25,-4.818 -4.872,-5.506 m 1.462,-0.824 5.356,6.005 c 3.684,-1.17 4.873,-2.418 4.873,-4.056 0,-2.598 -4.709,-4.871 -10.229,-1.949 m 4.383,7.792 c 0,0 -5.195,3.248 -6.005,4.383 0,0 3.404,5.853 5.681,6.33 3.084,0.652 6.657,-3.082 0.324,-10.713 m -8.603,3.898 c 0,0 -2.598,-3.033 -4.871,-5.035 -3.106,2.987 -4.676,5.218 -5.358,6.171 1.825,1.453 3.584,2.991 5.034,4.383 0,0 1.808,-2.566 5.195,-5.519 m -4.708,8.766 c 0,0 -3.45,12.003 1.3,12.175 4.544,0.161 0.484,-10.392 -1.3,-12.175 m -1.3,-14.774 -5.355,-3.896 -5.032,6.169 5.032,3.735 c 0,0 2.759,-3.572 5.355,-6.008 m 7.639,63.452 c -0.726,1.811 -1.529,4.562 -2.108,8.577 0.193,0.129 0.384,0.26 0.6,0.376 2.354,1.299 3.408,1.706 4.303,4.629 0.89,2.921 3.164,4.705 4.706,4.383 1.542,-0.327 0.892,-1.787 -0.892,-2.841 -1.787,-1.056 -3.085,-2.516 -2.679,-5.114 0,0 1.705,0.487 3.084,-0.568 1.379,-1.054 3.328,-1.786 5.357,-1.217 2.029,0.567 3.086,4.301 5.113,4.708 0,0 -1.703,-2.76 -0.567,-4.951 0,0 3.329,1.785 8.602,0.567 5.823,-1.344 13.576,-7.456 20.481,-15.328 -0.9,-1.17 -1.459,-2.617 -1.459,-4.207 0,-1.013 0.228,-1.966 0.617,-2.832 -1.207,-0.887 -2.596,-1.653 -3.975,-2.287 -1.766,9.791 -9.851,16.969 -20.193,18.835 -10.824,1.95 -18.555,-1.444 -20.99,-2.73 m 1.724,-3.114 c 13.852,8.007 28.787,2.161 34.417,-5.629 1.947,-2.699 2.934,-5.525 3.394,-8.069 -1.764,-0.706 -3.352,-1.19 -4.274,-1.448 -0.259,0.755 -0.458,1.366 -0.637,1.725 -0.649,1.299 -1.297,1.514 -2.812,2.164 -1.516,0.65 -1.83,5.656 -11.04,6.925 -6.276,0.867 -11.905,-3.463 -11.905,-3.463 -4.98,3.898 -7.143,7.795 -7.143,7.795 m 7.907,-10.298 c 3.484,-2.697 7.89,-4.355 9.437,-4.885 -0.556,-0.81 -1.42,-1.483 -2.679,-1.971 0,0 -1.786,-0.814 -1.623,-2.113 0.161,-1.297 2.434,-8.441 -2.436,-9.577 0,0 3.084,-2.273 7.791,-0.813 0,0 0,-2.596 0.812,-4.056 0,0 -7.143,-1.463 -12.5,6.329 -4.453,6.479 -1.957,13.571 1.198,17.086 m 10.021,-3.622 c -4.621,1.54 -7.471,3.295 -9.064,4.534 3.445,2.77 8.897,0.58 9.209,-1.928 0.117,-0.939 0.083,-1.815 -0.145,-2.606 m 19.735,-8.377 c -1.774,1.653 -2.832,3.76 -3.537,5.538 1.287,0.404 2.629,0.914 3.912,1.451 0.419,-4.014 -0.375,-6.989 -0.375,-6.989 m -17.1,-1.729 C 33.987,50 33.987,46.32 29.226,47.402 c 0,0 1.514,1.299 1.081,4.332 -0.432,3.028 0.002,4.544 1.515,5.626 1.516,1.079 3.68,3.031 2.383,7.358 0,0 1.147,-0.263 1.729,-3.245 0.611,-3.109 -3.463,-11.04 -3.463,-11.04 0,0 8.66,9.308 3.463,14.934 0,0 -0.432,0.435 0,1.949 0,0 3.248,-2.378 3.681,-8.007 0,0 0.215,-0.759 -0.272,-3.682 -0.487,-2.921 -1.297,-6.493 -0.81,-9.253 0.484,-2.759 1.621,-2.923 1.621,-2.923 -1.461,2.274 -0.324,8.442 0.651,13.475 0.973,5.033 -2.272,9.741 -2.272,9.741 l -0.326,1.299 c 3.734,-3.248 3.734,-9.905 4.869,-10.879 1.138,-0.972 1.463,0.813 1.463,0.813 -1.463,1.623 -1.463,4.439 -1.463,4.439 0,0 0.865,-1.084 1.734,-1.084 0.867,0 0.867,0.649 2.165,-1.514 1.298,-2.166 1.513,-6.06 6.06,-7.577 0,0 -2.382,-3.03 -7.143,1.299 0,0 -1.951,0.433 -1.082,-1.084 0.867,-1.514 1.732,-5.409 -0.433,-7.572 -2.165,-2.166 -2.812,-5.197 -1.301,-7.578 0,0 -5.627,-0.432 -7.357,4.979 -1.732,5.409 0.864,8.008 0.864,8.008 0,0 0.434,2.815 -1.081,1.301 m 10.236,-7.066 c 0.121,0.194 0.246,0.383 0.368,0.572 2.167,3.244 1.951,5.195 1.951,5.195 0.978,-0.34 1.915,-0.46 2.8,-0.424 -1.619,-2.381 -3.75,-4.265 -5.119,-5.343 m 13.752,23.22 c 0,2.869 2.324,5.194 5.192,5.194 2.87,0 5.196,-2.325 5.196,-5.194 0,-2.869 -2.326,-5.194 -5.196,-5.194 -2.868,0 -5.192,2.325 -5.192,5.194 m 8.062,6.289 c -0.878,0.399 -1.843,0.639 -2.87,0.639 -1.678,0 -3.198,-0.622 -4.395,-1.616 -7.764,7.007 -13.758,14.831 -15.022,20.664 -1.144,5.291 0.686,8.597 0.686,8.597 -2.174,1.164 -4.958,-0.501 -4.958,-0.501 0.434,2.024 4.181,3.027 4.777,5.048 0.595,2.022 -0.108,3.979 -1.144,5.375 -1.036,1.394 -0.524,3.09 -0.524,3.09 -2.594,0.443 -4.073,-0.836 -5.151,-2.609 -1.08,-1.772 -2.549,-2.4 -2.853,-0.853 -0.304,1.548 1.513,3.796 4.446,4.649 2.935,0.85 3.354,1.902 4.685,4.235 0.112,0.2 0.236,0.372 0.357,0.551 3.805,-0.574 6.438,-1.349 8.187,-2.05 C 52.486,116.742 49.093,109.013 51.046,98.19 52.91,87.847 60.093,79.763 69.879,77.994 69.234,76.595 68.457,75.182 67.552,73.96 m 3.036,5.685 c -2.545,0.459 -5.371,1.445 -8.07,3.393 -7.791,5.629 -13.637,20.565 -5.627,34.416 0,0 3.896,-2.163 7.791,-7.143 0,0 -4.327,-5.627 -3.461,-11.904 1.27,-9.212 6.275,-9.525 6.925,-11.04 0.649,-1.514 0.864,-2.163 2.165,-2.812 0.359,-0.179 0.969,-0.379 1.723,-0.637 -0.259,-0.923 -0.742,-2.51 -1.446,-4.273 m 1.608,-0.229 c 0.536,1.284 1.048,2.626 1.45,3.912 1.782,-0.703 3.02,-1.548 4.672,-3.32 0,0 -2.107,-1.009 -6.122,-0.592 m 0.495,6.005 c -2.165,1.297 -1.514,1.297 -1.514,2.164 0,0.866 -1.084,1.731 -1.084,1.731 0,0 2.814,0 4.439,-1.461 0,0 1.786,0.324 0.812,1.461 -0.975,1.136 -7.629,1.136 -10.879,4.872 l 1.3,-0.326 c 0,0 4.709,-3.247 9.741,-2.272 5.033,0.973 11.201,2.111 13.474,0.649 0,0 -0.163,1.136 -2.921,1.623 -2.762,0.487 -6.332,-0.324 -9.254,-0.812 -2.922,-0.487 -3.68,-0.271 -3.68,-0.271 -5.629,0.432 -8.01,3.68 -8.01,3.68 1.516,0.435 1.949,0 1.949,0 5.627,-5.196 13.42,4.112 13.42,4.112 0,0 -6.493,-4.327 -9.525,-4.112 -3.031,0.217 -3.247,1.731 -3.247,1.731 4.329,-1.296 6.279,0.867 7.36,2.381 1.082,1.514 2.598,1.949 5.627,1.516 3.031,-0.432 4.33,1.082 4.33,1.082 1.082,-4.762 -2.597,-4.762 -4.113,-6.275 -1.516,-1.517 1.3,-1.084 1.3,-1.084 0,0 2.598,2.597 8.009,0.866 5.41,-1.732 4.978,-7.36 4.978,-7.36 -2.383,1.514 -5.412,0.867 -7.577,-1.299 -2.163,-2.165 -6.06,-1.299 -7.575,-0.432 -1.518,0.866 -1.083,-1.084 -1.083,-1.084 4.329,-4.76 1.3,-7.141 1.3,-7.141 -1.516,4.545 -5.413,4.762 -7.577,6.061 m 9.525,-1.082 c 0,0 1.948,-0.217 5.194,1.947 0.188,0.124 0.378,0.249 0.57,0.369 -1.078,-1.367 -2.962,-3.501 -5.341,-5.118 0.036,0.884 -0.086,1.821 -0.423,2.802 m 8.388,13.907 c -1.461,0.811 -4.059,0.811 -4.059,0.811 1.461,4.708 -0.813,7.792 -0.813,7.792 -1.135,-4.87 -8.281,-2.598 -9.576,-2.435 -1.299,0.161 -2.111,-1.623 -2.111,-1.623 -0.49,-1.261 -1.162,-2.123 -1.973,-2.678 -0.531,1.544 -2.187,5.951 -4.884,9.435 3.513,3.153 10.608,5.65 17.083,1.198 7.793,-5.357 6.333,-12.5 6.333,-12.5 m -24.329,10.345 c 1.241,-1.596 2.995,-4.444 4.534,-9.066 -0.791,-0.225 -1.665,-0.261 -2.608,-0.143 -2.508,0.311 -4.697,5.765 -1.926,9.209 m -20.191,15.242 c 0,0 -1.137,0.018 -1.727,-1.6 -0.589,-1.615 -1.097,-3.069 -3.953,-4.166 -2.856,-1.096 -5.309,-2.443 -6.324,-5.434 -1.239,-3.644 2.527,-5.232 4.17,-3.708 1.645,1.518 1.209,5.258 4.289,5.053 0,0 -0.254,-0.808 0.779,-2.363 1.038,-1.557 1.409,-3.998 0.086,-5.686 -1.322,-1.685 -4.193,-3.837 -4.052,-5.543 0.138,-1.707 1.885,1.434 4.881,1.069 0,0 -0.915,-1.856 -0.793,-4.861 0.121,-3.004 1.856,-8.041 5.392,-13.091 -5.002,3.604 -10.014,5.406 -13.019,5.57 -3,0.163 -4.87,-0.731 -4.87,-0.731 -0.323,3.002 2.843,4.708 1.137,4.871 -1.705,0.162 -3.895,-2.678 -5.601,-3.977 -1.705,-1.298 -4.139,-0.894 -5.68,0.161 -1.545,1.055 -2.356,0.814 -2.356,0.814 -0.162,3.084 3.573,2.596 5.114,4.22 1.541,1.622 0.009,5.409 -3.652,4.219 C 16.9,97.676 15.521,95.241 14.385,92.4 13.248,89.56 11.788,89.073 10.164,88.503 8.541,87.938 8.541,86.8 8.541,86.8 c 0,0 -1.299,1.138 -0.162,2.436 1.137,1.299 2.353,2.108 2.189,2.921 -0.162,0.811 -1.379,0.65 -2.839,-0.488 -1.46,-1.134 -2.922,-0.486 -5.196,-0.404 -2.269,0.079 -3.814,0 -3.814,0 1.136,2.03 0.162,4.464 0.732,6.656 0.567,2.189 3.244,1.946 4.058,2.597 0.811,0.649 0.163,1.705 -1.626,2.111 -1.785,0.404 -2.839,1.785 -2.839,1.785 2.678,0.404 3.977,3.977 6.413,4.382 2.434,0.408 4.139,-2.272 7.873,-1.865 3.732,0.404 3.49,4.058 0.892,5.357 -2.596,1.297 -5.033,0.565 -7.71,0.161 -2.678,-0.404 -3.735,1.381 -5.278,2.762 -1.541,1.379 -2.921,2.028 -2.921,2.028 0,0 1.138,2.435 2.76,2.596 1.622,0.164 3.003,-1.378 3.166,0.246 0.161,1.621 -1.706,1.621 -3.652,3.002 -1.948,1.378 -1.868,2.841 -1.786,5.764 0.08,2.923 -0.082,3.245 -0.488,4.299 -0.407,1.059 -0.028,1.598 -0.028,1.598 0,0 0.546,0.37 1.594,-0.049 1.051,-0.422 1.373,-0.588 4.297,-0.547 2.924,0.041 4.385,0.104 5.738,-1.864 1.352,-1.966 1.326,-3.833 2.953,-3.693 1.625,0.139 0.104,1.54 0.285,3.162 0.186,1.621 2.637,2.723 2.637,2.723 0,0 0.629,-1.39 1.989,-2.949 1.359,-1.562 3.13,-2.641 2.687,-5.315 -0.442,-2.671 -1.206,-5.095 0.058,-7.71 1.263,-2.615 4.911,-2.91 5.368,0.819 0.456,3.727 -2.198,5.468 -1.758,7.898 0.438,2.428 4.027,3.679 4.469,6.351 0,0 1.365,-1.073 1.748,-2.865 0.381,-1.791 1.427,-2.454 2.087,-1.652 0.66,0.805 0.454,3.485 2.653,4.024 2.199,0.536 4.619,-0.47 6.664,0.639 0,0 -0.102,-1.54 -0.051,-3.815 0.049,-2.273 0.68,-3.743 -0.476,-5.188 -1.159,-1.447 -1.336,-2.663 -0.528,-2.835 0.809,-0.174 1.639,1.033 2.951,2.153 1.317,1.116 2.434,-0.198 2.434,-0.198 M 72.258,58.795 c 0,0.957 0.776,1.733 1.733,1.733 0.955,0 1.733,-0.776 1.733,-1.733 0,-0.955 -0.778,-1.732 -1.733,-1.732 -0.957,0 -1.733,0.777 -1.733,1.732 m 37.826,72.244 c 0.951,-0.682 3.184,-2.25 6.17,-5.36 -2.003,-2.271 -5.033,-4.869 -5.033,-4.869 -2.955,3.385 -5.52,5.193 -5.52,5.193 1.391,1.452 2.929,3.212 4.383,5.036 m 0.648,-12.825 c 1.138,-0.814 4.383,-6.008 4.383,-6.008 -7.629,-6.331 -11.363,-2.761 -10.713,0.325 0.481,2.276 6.33,5.683 6.33,5.683 m 1.354,1.404 5.336,4.828 c 1.146,-1.281 2.962,-3.508 4.662,-6.393 -0.688,-0.624 -2.964,-2.865 -5.506,-4.874 -1.949,3.086 -3.031,4.329 -4.492,6.439 m 4.816,-8.384 6.006,5.356 c 2.924,-5.519 0.651,-10.227 -1.947,-10.227 -1.641,0 -2.887,1.187 -4.059,4.871 m 0.325,15.582 c -2.436,2.599 -6.006,5.358 -6.006,5.358 l 3.732,5.031 6.17,-5.031 z m -14.774,-1.298 c -1.785,-1.786 -12.338,-5.844 -12.174,-1.297 0.168,4.748 12.174,1.297 12.174,1.297 m 25.435,2.327 c 0,2.512 2.034,4.546 4.545,4.546 2.51,0 4.544,-2.034 4.544,-4.546 0,-2.511 -2.034,-4.545 -4.544,-4.545 -2.511,0 -4.545,2.034 -4.545,4.545 M -1.514,0 c 0,-3.349 2.715,-6.061 6.062,-6.061 3.348,0 6.061,2.712 6.061,6.061 0,1.333 -0.436,2.561 -1.166,3.563 l 5.063,4.771 c 7.25,-4.329 13.824,-0.97 14.068,3.352 0.217,3.842 -6.926,5.304 -6.926,5.304 0,0 5.845,5.737 4.115,10.498 -1.734,4.764 -6.928,3.463 -8.443,1.517 -1.516,-1.948 -4.545,-6.278 -4.545,-6.278 -2.816,1.949 -5.086,5.301 -5.086,5.301 0,0 3.137,4.007 4.219,8.984 1.764,8.108 -4.763,11.689 -7.142,3.68 C 3.105,35.107 5.85,28.68 5.85,28.68 5.414,27.706 0.437,23.594 0.437,23.594 c -4.764,7.357 -5.412,22.509 -0.649,33.117 5.218,11.625 14.284,17.965 14.284,17.965 2.815,-4.762 7.36,-8.225 7.36,-8.225 0,0 -7.723,-8.39 -2.597,-17.75 5.897,-10.768 16.017,-8.876 16.017,-8.876 6.277,-6.926 11.904,-4.976 11.904,-4.976 -3.149,2.1 -3.283,4.615 -2.348,7.046 4.393,2.552 7.186,6.49 8.242,8.191 3.782,1.069 6.228,4.676 6.228,4.676 -2.163,-1.514 -4.544,-0.866 -4.544,-0.866 0.451,2.454 0.528,4.813 0.289,7.054 2.115,0.948 3.884,1.861 4.752,2.321 1.271,-1.53 3.164,-2.526 5.307,-2.526 1.802,0 3.439,0.693 4.673,1.822 l 1.795,-1.796 c -0.389,-0.559 -0.624,-1.241 -0.624,-1.976 0,-1.91 1.552,-3.461 3.465,-3.461 1.911,0 3.46,1.551 3.46,3.461 0,1.914 -1.549,3.465 -3.46,3.465 -0.624,0 -1.196,-0.177 -1.702,-0.465 l -1.922,1.925 c 0.781,1.119 1.242,2.482 1.242,3.951 0,2.127 -0.978,4.003 -2.485,5.273 0.447,0.844 1.386,2.657 2.358,4.827 2.241,-0.239 4.6,-0.164 7.053,0.29 0,0 0.649,-2.38 -0.865,-4.544 0,0 3.605,2.445 4.675,6.226 1.701,1.058 5.639,3.848 8.193,8.241 2.429,0.936 4.943,0.803 7.046,-2.348 0,0 1.949,5.631 -4.979,11.907 0,0 1.895,10.117 -8.875,16.017 -9.359,5.125 -17.75,-2.599 -17.75,-2.599 0,0 -3.462,4.547 -8.224,7.36 0,0 6.34,9.066 17.967,14.286 10.606,4.761 25.757,4.114 33.116,-0.65 0,0 -4.113,-4.979 -5.087,-5.412 0,0 -6.426,2.745 -12.013,1.084 -8.009,-2.38 -4.426,-8.905 3.679,-7.144 4.98,1.084 8.984,4.222 8.984,4.222 0,0 3.355,-2.274 5.303,-5.089 0,0 -4.329,-3.028 -6.277,-4.545 -1.948,-1.513 -3.247,-6.71 1.515,-8.441 4.762,-1.732 10.497,4.114 10.497,4.114 0,0 1.462,-7.143 5.304,-6.928 4.322,0.245 7.683,6.819 3.354,14.069 l 4.771,5.065 c 1,-0.732 2.231,-1.168 3.564,-1.168 3.347,0 6.06,2.714 6.06,6.061 0,3.348 -2.713,6.063 -6.06,6.063 -3.349,0 -6.062,-2.715 -6.062,-6.063 0,-1.403 0.481,-2.691 1.281,-3.717 l -4.42,-4.779 -4.705,6.33 c 0,0 2.596,3.086 4.869,6.656 0,0 -1.298,1.788 -8.494,7.414 0,0 -2.382,-3.028 -5.142,-6.764 0,0 -8.28,5.521 -22.728,4.708 -14.382,-0.807 -25.864,-7.248 -32.694,-17.552 -2.69,1.174 -5.984,1.787 -7.982,2.075 1.123,1.224 2.248,1.746 2.248,1.746 -1.178,2.857 -4.76,2.175 -4.76,2.175 0.523,2.591 -1.563,4.568 -0.633,7.151 0.429,1.198 0.437,2.269 0.437,2.269 -1.296,0.26 -2.041,-0.785 -2.933,-0.772 -0.894,0.013 -3.981,-0.271 -5.686,-0.247 -1.705,0.023 -3.119,-2.474 -3.119,-2.474 0,0 -0.394,0.899 -1.435,1.807 -1.044,0.905 -2.092,1.49 -2.092,1.49 -0.576,-0.643 -1.17,-2.421 -2.158,-3.544 -1.371,-1.555 -2.949,-1.826 -3.309,-4.42 -0.426,-3.071 1.629,-5.542 1.208,-6.753 -0.424,-1.211 -2.77,-0.693 -2.735,1.822 0.033,2.518 0.533,3.486 0.554,5.026 0.022,1.542 -2.058,3.843 -3.254,5.403 -1.196,1.559 -1.351,2.049 -1.663,3.189 -0.307,1.138 -1.354,1.723 -1.354,1.723 -1.137,0.015 -1.483,-1.523 -1.651,-2.088 -0.171,-0.566 -0.902,-0.557 -1.642,-1.197 -0.739,-0.636 -0.682,-2.344 -0.682,-2.344 0,0 -0.873,1.392 -2.155,2.545 -1.284,1.157 -4.042,1.273 -6.968,1.071 -2.924,-0.205 -3.722,0.701 -4.853,1.204 -1.13,0.501 -1.891,0.234 -1.891,0.234 0,0 -0.275,-0.756 0.211,-1.892 0.486,-1.135 1.381,-1.948 1.137,-4.871 -0.242,-2.921 -0.164,-5.68 0.972,-6.98 1.138,-1.299 2.518,-2.194 2.518,-2.194 0,0 -1.705,0.084 -2.355,-0.649 -0.65,-0.727 -0.65,-1.46 -1.216,-1.622 -0.57,-0.163 -2.113,-0.486 -2.113,-1.624 0,0 0.571,-1.053 1.705,-1.38 1.137,-0.325 1.624,-0.486 3.166,-1.704 1.541,-1.217 3.817,-3.327 5.358,-3.327 1.541,0 2.516,0.487 5.032,0.487 2.517,0 3.003,-2.354 1.786,-2.76 -1.218,-0.406 -3.66,1.683 -6.737,1.299 -2.599,-0.325 -2.89,-1.897 -4.464,-3.247 -1.137,-0.973 -2.924,-1.542 -3.572,-2.111 0,0 0.568,-1.054 1.461,-2.109 0.894,-1.057 1.785,-1.463 1.785,-1.463 0,0 -2.515,-1.379 -2.515,-3.084 0,-1.706 -0.326,-4.788 -0.326,-5.683 0,-0.892 -1.054,-1.621 -0.811,-2.921 0,0 1.072,-0.005 2.273,0.405 2.597,0.895 4.547,-1.217 7.144,-0.729 0,0 -0.732,-3.572 2.11,-4.79 0,0 0.531,1.097 1.744,2.192 0.26,-1.934 0.873,-5.506 2.131,-8.381 C 1.947,71.263 -4.492,59.782 -5.299,45.4 -6.111,30.951 -0.592,22.673 -0.592,22.673 -4.327,19.911 -7.355,17.53 -7.355,17.53 -1.729,10.336 0.059,9.035 0.059,9.035 c 3.57,2.274 6.654,4.871 6.654,4.871 L 13.045,9.198 8.266,4.778 C 7.239,5.581 5.951,6.061 4.548,6.061 1.201,6.061 -1.514,3.347 -1.514,0"
           style="fill:#999999;fill-opacity:1;fill-rule:nonzero;stroke:none"
           id="path26412" />
      </g>
    </g>
  </g>
</svg>
