<svg xmlns="http://www.w3.org/2000/svg" xmlns:xlink="http://www.w3.org/1999/xlink" viewBox="0 0 270.93334 203.2" height="768" width="1024"><defs><symbol viewBox="0 0 20 28" id="a"><title>user</title><path d="M20 21.859C20 24.14 18.5 26 16.672 26H3.328C1.5 26 0 24.141 0 21.859 0 17.75 1.016 13 5.109 13a6.979 6.979 0 0 0 9.782 0C18.985 13 20 17.75 20 21.859zM16 8c0 3.313-2.688 6-6 6s-6-2.688-6-6 2.688-6 6-6 6 2.688 6 6z" class="path1"/></symbol></defs><path opacity=".97" fill="#eeefe4" d="M-4.378-4.602h277.337v211.278H-4.378z"/><g fill="#d2d3c6"><path d="M.348 203.185V-.232l135.996 101.708z" opacity=".97"/><path d="M270.817 203.185V-.232L136.344 101.476z" opacity=".97"/></g><rect width="62.683" height="44.575" x="191.009" y="75.736" ry="6.501" opacity=".97" fill="red"/><rect width="55.719" height="32.967" x="194.266" y="80.844" ry="0" opacity=".97" fill="#d2d3c6"/><path d="M211.255 115.887l-3.385 10.598h28.54s-3.326-9.77-3.326-10.598z" opacity=".97" fill="red"/><use height="100%" width="100%" transform="matrix(.1398 0 0 .1398 179.014 103.848)" xlink:href="#a" fill="#495b64"/><use xlink:href="#a" transform="matrix(.1398 0 0 .1398 215.98 87.3)" width="100%" height="100%" fill="#495b64"/><text style="line-height:1.25;-inkscape-font-specification:Ubuntu" x="97.266" y="268.517" transform="translate(0 -93.8)" font-weight="400" font-size="10.583" font-family="Ubuntu" letter-spacing="0" word-spacing="0" fill="#495b64" stroke-width=".265"><tspan x="97.266" y="268.517" font-size="16.933">Asíncrono</tspan></text></svg>