<svg xmlns="http://www.w3.org/2000/svg" xmlns:xlink="http://www.w3.org/1999/xlink" viewBox="0 0 270.93333 270.93334" height="1024" width="1024"><defs><symbol id="a"><title>Manual Operation</title><desc>An offline process (at &amp;quot;human speed&amp;quot;).</desc><path d="M15 35h120l-30 80H45z" stroke-width="2"/></symbol><symbol viewBox="0 0 26 28" id="d"><title>key</title><path d="M13 8a3.001 3.001 0 0 0-6 0c0 .453.109.891.297 1.297A3.097 3.097 0 0 0 6 9a3.001 3.001 0 0 0 0 6c1.656 0 3-1.344 3-3 0-.453-.109-.891-.297-1.297.406.187.844.297 1.297.297 1.656 0 3-1.344 3-3zm13.297 11c0 .359-1.437 1.797-1.797 1.797-.406 0-1.672-1.469-2-1.797L21 20.5l3.437 3.437c.281.281.438.672.438 1.062 0 .875-1 1.875-1.875 1.875a1.51 1.51 0 0 1-1.062-.438L11.454 15.952c-1.641 1.219-3.641 2.047-5.703 2.047-3.406 0-5.75-2.359-5.75-5.75 0-5.125 5.125-10.25 10.25-10.25 3.391 0 5.75 2.344 5.75 5.75 0 2.063-.828 4.062-2.047 5.703l5.547 5.547 1.5-1.5c-.328-.328-1.797-1.594-1.797-2 0-.359 1.437-1.797 1.797-1.797a.54.54 0 0 1 .359.156c.578.578 4.937 4.688 4.937 5.141z" class="path1"/></symbol><symbol viewBox="0 0 18 28" id="b"><title>lock</title><path d="M5 12h8V9c0-2.203-1.797-4-4-4S5 6.797 5 9v3zm13 1.5v9a1.5 1.5 0 0 1-1.5 1.5h-15A1.5 1.5 0 0 1 0 22.5v-9A1.5 1.5 0 0 1 1.5 12H2V9c0-3.844 3.156-7 7-7s7 3.156 7 7v3h.5a1.5 1.5 0 0 1 1.5 1.5z" class="path1"/></symbol><symbol viewBox="0 0 16 28" id="c"><title>map-marker</title><path d="M12 10c0-2.203-1.797-4-4-4s-4 1.797-4 4 1.797 4 4 4 4-1.797 4-4zm4 0c0 .953-.109 1.937-.516 2.797L9.796 24.891C9.468 25.579 8.749 26 7.999 26s-1.469-.422-1.781-1.109L.515 12.797C.109 11.938-.001 10.953-.001 10c0-4.422 3.578-8 8-8s8 3.578 8 8z" class="path1"/></symbol></defs><g transform="translate(0 -26.067)" opacity=".98" stroke-width="1.002"><use height="100%" width="100%" transform="matrix(0 -2.22376 -1.68341 0 194.84 328.315)" xlink:href="#a" fill="#db878f" opacity=".94"/><use xlink:href="#a" transform="matrix(0 -2.22376 1.68341 0 76.736 328.315)" width="100%" height="100%" fill="#b51b27"/></g><use height="100%" width="100%" transform="translate(26.171 31.923) scale(.80983)" xlink:href="#c" fill="#fff"/></svg>