<svg xmlns="http://www.w3.org/2000/svg" xmlns:xlink="http://www.w3.org/1999/xlink" width="1024" height="768" viewBox="0 0 270.93333 203.2"><defs><symbol id="c" viewBox="0 0 20 20"><title>calendar-alt</title><path d="M15 4h3v15H2V4h3V3c0-.41.15-.76.44-1.06.29-.29.65-.44 1.06-.44s.77.15 1.06.44c.29.3.44.65.44 1.06v1h4V3c0-.41.15-.76.44-1.06.29-.29.65-.44 1.06-.44s.77.15 1.06.44c.29.3.44.65.44 1.06v1zM6 3v2.5a.491.491 0 0 0 .5.5.491.491 0 0 0 .5-.5V3c0-.14-.05-.26-.15-.35-.09-.1-.21-.15-.35-.15s-.26.05-.35.15c-.1.09-.15.21-.15.35zm7 0v2.5c0 .14.05.26.14.36.1.09.22.14.36.14s.26-.05.36-.14c.09-.1.14-.22.14-.36V3a.491.491 0 0 0-.5-.5.491.491 0 0 0-.5.5zm4 15V8H3v10h14zM7 9v2H5V9h2zm2 0h2v2H9V9zm4 2V9h2v2h-2zm-6 1v2H5v-2h2zm2 0h2v2H9v-2zm4 2v-2h2v2h-2zm-6 1v2H5v-2h2zm4 2H9v-2h2v2zm4 0h-2v-2h2v2z"/></symbol><symbol id="e" viewBox="0 0 20 20"><title>groups</title><path d="M8.03 4.46c-.29 1.28.55 3.46 1.97 3.46 1.41 0 2.25-2.18 1.96-3.46-.22-.98-1.08-1.63-1.96-1.63-.89 0-1.74.65-1.97 1.63zm-4.13.9c-.25 1.08.47 2.93 1.67 2.93s1.92-1.85 1.67-2.93c-.19-.83-.92-1.39-1.67-1.39s-1.48.56-1.67 1.39zm8.86 0c-.25 1.08.47 2.93 1.66 2.93 1.2 0 1.92-1.85 1.67-2.93-.19-.83-.92-1.39-1.67-1.39-.74 0-1.47.56-1.66 1.39zm-.59 11.43l1.25-4.3C14.2 10 12.71 8.47 10 8.47c-2.72 0-4.21 1.53-3.44 4.02l1.26 4.3C8.05 17.51 9 18 10 18c.98 0 1.94-.49 2.17-1.21zm-6.1-7.63c-.49.67-.96 1.83-.42 3.59l1.12 3.79c-.34.2-.77.31-1.2.31-.85 0-1.65-.41-1.85-1.03l-1.07-3.65c-.65-2.11.61-3.4 2.92-3.4.27 0 .54.02.79.06-.1.1-.2.22-.29.33zm8.35-.39c2.31 0 3.58 1.29 2.92 3.4l-1.07 3.65c-.2.62-1 1.03-1.85 1.03-.43 0-.86-.11-1.2-.31l1.11-3.77c.55-1.78.08-2.94-.42-3.61-.08-.11-.18-.23-.28-.33.25-.04.51-.06.79-.06z"/></symbol><symbol id="f" viewBox="0 0 20 20"><title>welcome-learn-more</title><path d="M10 10L2.54 7.02 3 18H1l.48-11.41L0 6l10-4 10 4zm0-5c-.55 0-1 .22-1 .5s.45.5 1 .5 1-.22 1-.5-.45-.5-1-.5zm0 6l5.57-2.23c.71.94 1.2 2.07 1.36 3.3-.3-.04-.61-.07-.93-.07-2.55 0-4.78 1.37-6 3.41A6.986 6.986 0 0 0 4 12c-.32 0-.63.03-.93.07.16-1.23.65-2.36 1.36-3.3z"/></symbol><symbol id="d" viewBox="0 0 22 28"><title>building-o</title><path class="path1" d="M6 20.5v1c0 .266-.234.5-.5.5h-1a.514.514 0 0 1-.5-.5v-1c0-.266.234-.5.5-.5h1c.266 0 .5.234.5.5zm0-4v1c0 .266-.234.5-.5.5h-1a.514.514 0 0 1-.5-.5v-1c0-.266.234-.5.5-.5h1c.266 0 .5.234.5.5zm4 0v1c0 .266-.234.5-.5.5h-1a.514.514 0 0 1-.5-.5v-1c0-.266.234-.5.5-.5h1c.266 0 .5.234.5.5zm-4-4v1c0 .266-.234.5-.5.5h-1a.514.514 0 0 1-.5-.5v-1c0-.266.234-.5.5-.5h1c.266 0 .5.234.5.5zm12 8v1c0 .266-.234.5-.5.5h-1a.514.514 0 0 1-.5-.5v-1c0-.266.234-.5.5-.5h1c.266 0 .5.234.5.5zm-4-4v1c0 .266-.234.5-.5.5h-1a.514.514 0 0 1-.5-.5v-1c0-.266.234-.5.5-.5h1c.266 0 .5.234.5.5zm-4-4v1c0 .266-.234.5-.5.5h-1a.514.514 0 0 1-.5-.5v-1c0-.266.234-.5.5-.5h1c.266 0 .5.234.5.5zm-4-4v1c0 .266-.234.5-.5.5h-1a.514.514 0 0 1-.5-.5v-1c0-.266.234-.5.5-.5h1c.266 0 .5.234.5.5zm12 8v1c0 .266-.234.5-.5.5h-1a.514.514 0 0 1-.5-.5v-1c0-.266.234-.5.5-.5h1c.266 0 .5.234.5.5zm-4-4v1c0 .266-.234.5-.5.5h-1a.514.514 0 0 1-.5-.5v-1c0-.266.234-.5.5-.5h1c.266 0 .5.234.5.5zm-4-4v1c0 .266-.234.5-.5.5h-1a.514.514 0 0 1-.5-.5v-1c0-.266.234-.5.5-.5h1c.266 0 .5.234.5.5zm-4-4v1c0 .266-.234.5-.5.5h-1a.514.514 0 0 1-.5-.5v-1c0-.266.234-.5.5-.5h1c.266 0 .5.234.5.5zm12 8v1c0 .266-.234.5-.5.5h-1a.514.514 0 0 1-.5-.5v-1c0-.266.234-.5.5-.5h1c.266 0 .5.234.5.5zm-4-4v1c0 .266-.234.5-.5.5h-1a.514.514 0 0 1-.5-.5v-1c0-.266.234-.5.5-.5h1c.266 0 .5.234.5.5zm-4-4v1c0 .266-.234.5-.5.5h-1a.514.514 0 0 1-.5-.5v-1c0-.266.234-.5.5-.5h1c.266 0 .5.234.5.5zm8 4v1c0 .266-.234.5-.5.5h-1a.514.514 0 0 1-.5-.5v-1c0-.266.234-.5.5-.5h1c.266 0 .5.234.5.5zm-4-4v1c0 .266-.234.5-.5.5h-1a.514.514 0 0 1-.5-.5v-1c0-.266.234-.5.5-.5h1c.266 0 .5.234.5.5zm4 0v1c0 .266-.234.5-.5.5h-1a.514.514 0 0 1-.5-.5v-1c0-.266.234-.5.5-.5h1c.266 0 .5.234.5.5zM14 26h6V2H2v24h6v-3.5c0-.266.234-.5.5-.5h5c.266 0 .5.234.5.5V26zm8-25v26c0 .547-.453 1-1 1H1c-.547 0-1-.453-1-1V1c0-.547.453-1 1-1h20c.547 0 1 .453 1 1z"/></symbol><symbol id="a" viewBox="0 0 30 28"><title>laptop</title><path class="path1" d="M6.5 20A2.507 2.507 0 0 1 4 17.5v-11C4 5.125 5.125 4 6.5 4h17C24.875 4 26 5.125 26 6.5v11c0 1.375-1.125 2.5-2.5 2.5h-17zM6 6.5v11c0 .266.234.5.5.5h17c.266 0 .5-.234.5-.5v-11c0-.266-.234-.5-.5-.5h-17c-.266 0-.5.234-.5.5zM27.5 21H30v1.5c0 .828-1.125 1.5-2.5 1.5h-25C1.125 24 0 23.328 0 22.5V21h27.5zm-11.25 1.5c.141 0 .25-.109.25-.25s-.109-.25-.25-.25h-2.5c-.141 0-.25.109-.25.25s.109.25.25.25h2.5z"/></symbol><symbol id="b" viewBox="0 0 24 28"><title>history</title><path class="path1" d="M24 14c0 6.609-5.391 12-12 12a11.972 11.972 0 0 1-9.234-4.328.52.52 0 0 1 .031-.672l2.141-2.156a.599.599 0 0 1 .391-.141.51.51 0 0 1 .359.187A7.91 7.91 0 0 0 12 21.999c4.406 0 8-3.594 8-8s-3.594-8-8-8A7.952 7.952 0 0 0 6.563 8.14l2.141 2.156a.964.964 0 0 1 .219 1.078 1.002 1.002 0 0 1-.922.625h-7c-.547 0-1-.453-1-1v-7c0-.406.25-.766.625-.922a.964.964 0 0 1 1.078.219l2.031 2.016c2.203-2.078 5.187-3.313 8.266-3.313 6.609 0 12 5.391 12 12zM14 9.5v7c0 .281-.219.5-.5.5h-5a.494.494 0 0 1-.5-.5v-1c0-.281.219-.5.5-.5H12V9.5c0-.281.219-.5.5-.5h1c.281 0 .5.219.5.5z"/></symbol></defs><path fill="#e1e3d4" d="M-1.871-3.132h278.495v208.47H-1.871z"/><g transform="matrix(1.05718 0 0 1.05718 -12.09 -7.373)"><g transform="translate(-61.988 -3.024)" fill="none" stroke="#455762" stroke-width=".929" stroke-linecap="round" stroke-linejoin="round"><ellipse cx="107.421" cy="41.086" rx="9.488" ry="28.953"/><ellipse ry="28.953" rx="9.488" cy="-71.074" cx="90.349" transform="rotate(58.73)"/><ellipse transform="scale(-1 1) rotate(58.729)" cx="-20.955" cy="113.218" rx="9.488" ry="28.953"/></g><circle r="2.646" cy="26.307" cx="45.055" fill="red"/><circle cx="60.93" cy="37.42" r="2.646" fill="red"/><circle r="2.646" cy="48.381" cx="45.282" fill="red"/><circle cx="29.029" cy="37.117" r="2.646" fill="red"/></g><use xlink:href="#a" width="100%" height="100%" transform="matrix(.35313 0 0 .35313 92.992 -3.719)" fill="#455762"/><use xlink:href="#b" width="100%" height="100%" transform="matrix(-.104 0 0 .104 154.469 14.985)" fill="red"/><use xlink:href="#c" transform="matrix(.28561 0 0 .28561 201.707 .942)" width="100%" height="100%" fill="#455762"/><use xlink:href="#d" width="100%" height="100%" transform="matrix(.27971 0 0 .27971 202.516 127.8)" fill="#455762"/><g transform="translate(-2.14 -3.602) scale(.99364)" fill="#455762"><use height="100%" width="100%" transform="matrix(.23516 0 0 .23516 86.78 131.826)" xlink:href="#e"/><use xlink:href="#e" transform="matrix(.23516 0 0 .23516 126.322 131.975)" width="100%" height="100%"/></g><use xlink:href="#f" transform="translate(.336 125.922) scale(.26988)" width="100%" height="100%" fill="#455762"/><g fill="#aca793"><path d="M74.462 28.313H95.26v4.698h-20.8z"/><path d="M93.582 35.285v-9.068l5.593 4.534zM182.87 28.313h20.799v4.698h-20.8z"/><path d="M201.99 35.285v-9.068l5.593 4.534zM241.619 86.887v20.799h-4.698v-20.8z"/><path d="M234.647 106.007h9.068l-4.534 5.593z"/><g><path d="M206.463 156.185h-20.799v-4.698h20.8z"/><path d="M187.343 149.213v9.068l-5.593-4.534z"/></g><g><path d="M88.984 156.185h-20.8v-4.698h20.8z"/><path d="M69.864 149.213v9.068l-5.593-4.534z"/></g></g><g font-weight="400" font-size="11.934" font-family="Ubuntu" letter-spacing="0" word-spacing="0" fill="#455762" stroke-width=".28"><text style="line-height:1.25;-inkscape-font-specification:Ubuntu" x="23.352" y="74.843"><tspan x="23.352" y="74.843" font-size="8.467">Teoría</tspan></text><text y="74.843" x="120.329" style="line-height:1.25;-inkscape-font-specification:Ubuntu"><tspan y="74.843" x="120.329" font-size="8.467">Asíncrono</tspan></text><text style="line-height:1.25;-inkscape-font-specification:Ubuntu" x="216.43" y="74.843"><tspan x="216.43" y="74.843" font-size="8.467">Vencimiento</tspan></text><text y="197.297" x="219.877" style="line-height:1.25;-inkscape-font-specification:Ubuntu"><tspan y="197.297" x="219.877" font-size="8.467">Aula Física</tspan></text><text style="line-height:1.25;-inkscape-font-specification:Ubuntu" x="104.544" y="182.752"><tspan x="104.544" y="182.752" font-size="8.467">Foros, Grupos...</tspan></text><text y="185.989" x="3.77" style="line-height:1.25;-inkscape-font-specification:Ubuntu"><tspan y="185.989" x="3.77" font-size="8.467">Blended Learning</tspan></text></g></svg>