<svg xmlns="http://www.w3.org/2000/svg" viewBox="0 0 270.93333 203.20001" height="768" width="1024"><g fill="#999"><path d="M109.128 128.62c1.859-1.807 6.634-1.904 6.595 1.125 0 0-.677 3.017-3.625 3.056-2.947.036-4.82-2.377-2.97-4.18m26.15-13.656s-3.899-.773-4.888-4.05c-1.032-3.426 2.72-7.087 4.958-6.746 2.247-.311 5.955 3.401 4.87 6.814-1.031 3.262-4.94 3.982-4.94 3.982m-1.903 33.911a2.7 2.7 0 0 1 3.82.003 2.698 2.698 0 0 1 0 3.817 2.7 2.7 0 1 1-3.82-3.82m27.86-19.9c1.832 1.831-.077 4.22-3.018 4.139-2.95-.08-3.587-3.106-3.587-3.106 0-3.025 4.776-2.862 6.606-1.033m-54.736-.153c-1.717 3.24 2.064 6.317 6.538 5.265 3.488-.825 5.499-3.742 6.214-4.989 1.167-.564 3.24-1.797 5.935-4.32 3.591-3.366 6.346-7.684 7.136-8.98.617.415 1.2.691 1.66.861l.308 29.4a4.79 4.79 0 0 0-2.428 1.304 4.839 4.839 0 0 0 0 6.847 4.84 4.84 0 1 0 6.845-6.844 4.775 4.775 0 0 0-2.862-1.364l.708-29.323a7.677 7.677 0 0 0 1.67-.845c.77 1.309 3.464 5.667 7.012 9.081 2.66 2.558 4.71 3.817 5.872 4.4.7 1.257 2.669 4.204 6.15 5.072 4.456 1.116 8.281-1.91 6.607-5.176-1.422-2.773-9.444-5.562-12.676-1.032-1.097-.683-2.793-1.953-5.236-4.298-3.339-3.207-5.27-8.247-5.81-9.792a9.57 9.57 0 0 0 .792-1.117c.179-.294.26-.592.384-.885 1.53-1.562 7.485-6.934 13.391-2.539 0 0-4.017-5.67-13.158-1.853-.795-2.55-3.01-4.812-5.567-6.195.011-1.007.164-2.688.97-3.493 1.196-1.197 3.903-1.038 3.903-1.038s-4.286-2.805-5.365-13.305c-1.224 10.484-5.546 13.231-5.546 13.231s2.708-.121 3.886 1.088c.798.82.928 2.503.923 3.508-2.575 1.348-4.82 3.583-5.653 6.122-9.086-3.948-13.178 1.672-13.178 1.672 5.962-4.315 11.843 1.134 13.35 2.718.121.298.2.598.371.89.248.425.51.79.78 1.132-.559 1.536-2.559 6.548-5.941 9.708-2.478 2.312-4.187 3.559-5.295 4.229-3.169-4.578-11.23-1.895-12.69.86"/><path d="M134.737 110.573a1.386 1.386 0 0 1-.375-.258 1.344 1.344 0 0 1-.277-1.454l.032-.043a1.29 1.29 0 0 1 .266-.388l.148-.1.296-.19.232-.047.266-.046.319.062.181.038.329.217.107.075c.12.12.206.26.27.4l.022.04c.19.464.094 1.01-.259 1.398l-.037.053-.328.216-.117.074-.295.058-.209.04-.19-.04-.318-.064zm-1.668.997l.012.008.017.02.3.253.173.133.321.177.224.118.314.095.266.082.295.03.305.03.263-.02.34-.031.23-.066.353-.103.182-.095.367-.194.133-.104c.118-.085.236-.17.343-.273l.019-.023.009-.008.076-.089a3.23 3.23 0 0 0 .322-.398l.032-.062c.1-.158.188-.319.26-.487l.004-.016a3.141 3.141 0 0 0-.659-3.356l-.036-.027h-.001l-.017-.013a3.123 3.123 0 0 0-.472-.388l-.06-.033a3.28 3.28 0 0 0-.478-.252l-.143-.043-.434-.13-.227-.025-.364-.035-.317.025-.28.027-.389.114-.184.051c-.154.06-.296.14-.435.22l-.112.062c-.156.097-.299.216-.436.346l-.052.042-.005.005-.031.023a3.188 3.188 0 0 0-.352.433l-.024.027c-.117.174-.21.353-.292.538l-.001.003a3.14 3.14 0 0 0-.245 1.165l-.001.013c-.005.19.013.374.045.56l.004.04c.031.175.082.35.142.515l.023.073c.061.154.143.299.224.443l.059.11c.083.13.185.248.29.362zM131.493 49.5a6.003 6.003 0 0 1-.002-8.494 6.84 6.84 0 0 1 .556-.486c-1.313 1.658-1.186 4.105.398 5.689 1.702 1.702 4.41 1.747 6.05.107 1.644-1.644 1.596-4.35-.106-6.052a4.487 4.487 0 0 0-1.17-.824 6.002 6.002 0 0 1 2.764 10.059 6.002 6.002 0 0 1-8.49 0M11.758 39.309a2.404 2.404 0 0 1-3.398 0 2.403 2.403 0 1 1 3.398-.001m1.273 1.274a4.203 4.203 0 1 0-5.944-5.945 4.203 4.203 0 0 0 0 5.945 4.2 4.2 0 0 0 5.944 0M262.572 39.346a2.401 2.401 0 0 1-3.395.002 2.406 2.406 0 0 1-.002-3.4 2.403 2.403 0 0 1 3.397 3.398m1.275 1.275a4.203 4.203 0 0 0-5.945-5.945 4.202 4.202 0 0 0 .003 5.943 4.202 4.202 0 0 0 5.942.002"/><path d="M265.335 42.11a6.306 6.306 0 0 1-8.917-.005 6.303 6.303 0 1 1 8.914-8.914 6.304 6.304 0 0 1 .003 8.918m-24.214-3.918a56.755 56.755 0 0 1 1.697 10.844l-9.967.5c-.638-3.502-.797-5.783-1.909-10.722 4.462-.525 8.894-.557 10.179-.622m-.626-2.242l-11.143.636c-2.465-4.76-2.408-7.15-.801-8.757 2.548-2.548 9.396-.159 11.944 8.12m-11.941 3.344s1.91 8.281 1.59 10.189c0 0-9.078 2.402-11.78.636-3.664-2.385-3.506-9.552 10.19-10.825m4.614 12.261s5.523-.427 9.716-.16c.117 5.975-.531 9.703-.797 11.307a102.785 102.785 0 0 0-9.236-.639s.743-4.29.317-10.508m-3.98 13.215s-8.388 15.156-13.216 10.666c-4.614-4.298 9.718-10.667 13.216-10.666m15.766-13.215l9.073 1.431-1.115 10.986-8.599-1.272s.797-6.21.64-11.145m-69.724 54.74c-1.065 2.489-2.975 5.975-6.345 10.48-.316-.062-.632-.121-.957-.22-3.583-1.034-5.016-1.669-8.76.32-3.739 1.992-7.719 1.512-8.915-.316-1.192-1.833.878-2.628 3.661-1.912 2.788.717 5.493.558 7.643-2.388 0 0-2.15-1.195-2.467-3.582-.319-2.386-1.513-5.016-4.06-6.448-2.547-1.434-7.246 1.192-9.633-.397 0 0 4.377-1.037 5.412-4.3 0 0-5.016-1.514-8.993-7.88-4.393-7.03-6.002-20.628-5.054-35.121 2.03-.265 3.998-1.136 5.557-2.695a9.547 9.547 0 0 0 2.173-3.383c2.053.314 4.167.925 6.141 1.655-7.87 11.335-6.98 26.305 1.332 38.279 8.704 12.528 19.615 16.782 23.265 17.909m1.363-4.745c-21.44-5.733-30.354-26.115-28.235-39.277.738-4.557 2.541-8.296 4.585-11.243a59.632 59.632 0 0 1 5.612 2.772c-.486.995-.89 1.789-1.067 2.317-.637 1.91-.213 2.757.636 4.88.849 2.124-3.753 7.342 4.036 17.62 5.305 7.006 15.072 8.28 15.072 8.28 1.061 8.707-.64 14.65-.64 14.65m2.346-17.855c-.772-6.062-3.467-12.01-4.465-14.046 1.34-.25 2.848-.062 4.561.694 0 0 2.55.953 3.664-.48 1.114-1.43 5.892-10.667 11.782-7.004 0 0-.795-5.254-6.844-8.439 0 0 2.547-2.546 3.182-4.774 0 0 8.44 5.57 6.053 18.467-1.988 10.722-11.391 15.23-17.933 15.582m-6.276-13.38c3.022 6.042 4.096 10.559 4.443 13.336-6.096-.662-9.295-8.157-7.141-10.923.806-1.035 1.698-1.861 2.698-2.413M161.52 42.74c.119 3.36-.91 6.465-1.962 8.9-1.659-.866-3.475-1.682-5.26-2.413 3.525-4.348 7.222-6.487 7.222-6.487m18.467 15.075c2.974-.002 6.583-3.61 10.192 2.12 0 0-2.76-.211-5.31 3.188-2.545 3.394-4.458 4.455-7.003 4.032-2.545-.428-6.582-.636-9.554 4.88 0 0-.867-1.383 1.487-4.879 2.45-3.648 14.224-7.431 14.224-7.431s-17.623.636-18.043 11.25c0 0-.003.851-1.912 1.912 0 0-.853-5.518 4.243-11.463 0 0 .534-.956 3.878-3.345 3.343-2.387 7.64-5.096 9.87-8.28 2.231-3.181 1.277-4.457 1.277-4.457-.798 3.663-7.962 8.597-13.855 12.577-5.89 3.982-7.325 11.783-7.325 11.783l-.955 1.593c-.476-6.847 6.053-13.377 5.895-15.445-.163-2.07-2.232-.638-2.232-.638-.157 3.027-2.92 5.789-2.92 5.789s.216-1.912-.637-2.764c-.85-.85-1.487-.214-.638-3.608.851-3.398 4.46-7.428 1.488-13.375 0 0 5.308-.636 5.731 8.28 0 0 1.49 2.338 2.125-.002.634-2.336 3.606-7.004 7.85-7.002 4.249-.001 7.856-2.34 8.71-6.157 0 0 5.942 5.096 2.332 12.1-3.607 7.003-8.702 7.006-8.702 7.006s-3.187 2.335-.216 2.336m-3.109-16.97c-.309.072-.617.135-.922.201-5.307 1.056-7.008 3.182-7.008 3.182a10.44 10.44 0 0 0-2.33-3.162c3.922-.748 7.86-.506 10.26-.22m-36.261 9.286a7.205 7.205 0 1 1-10.186-10.188 7.205 7.205 0 0 1 10.186 10.188m-14.076-1.739c.47 1.252 1.181 2.434 2.188 3.442 1.646 1.645 3.747 2.526 5.896 2.725.742 14.487-1.052 28.04-5.534 35-4.067 6.312-9.104 7.76-9.104 7.76.99 3.273 5.354 4.37 5.354 4.37-2.41 1.56-7.07-1.13-9.636.267-2.567 1.4-3.797 4.008-4.15 6.393-.351 2.384-2.517 3.545-2.517 3.545 2.11 2.979 4.815 3.175 7.611 2.493 2.797-.679 4.854.146 3.635 1.962-1.22 1.816-5.207 2.239-8.92.199-3.713-2.045-5.155-1.424-8.749-.442-.306.087-.596.134-.89.19-3.17-4.294-4.992-7.637-6.02-10.04 3.653-1.127 14.561-5.38 23.26-17.91 8.317-11.973 9.2-26.947 1.338-38.28 2.004-.74 4.152-1.363 6.238-1.674m-8.553 2.598c2.046 2.946 3.85 6.685 4.587 11.243 2.12 13.162-6.795 33.545-28.236 39.273 0 0-1.7-5.942-.635-14.647 0 0 9.762-1.275 15.07-8.28 7.789-10.281 3.187-15.497 4.035-17.62.849-2.122 1.274-2.969.635-4.882-.177-.527-.579-1.322-1.065-2.314a60.33 60.33 0 0 1 5.609-2.773m-1.353-1.802c-1.785.734-3.603 1.548-5.259 2.415-1.058-2.437-1.443-4.48-1.326-7.838 0 0 3.057 1.077 6.585 5.423m-6.375 5.405c.852 3.395.213 2.757-.637 3.607-.85.85-.635 2.76-.635 2.76s-2.76-2.76-2.92-5.786c0 0-2.07-1.434-2.23.637-.158 2.07 6.368 8.596 5.892 15.448l-.956-1.595s-1.434-7.803-7.325-11.782c-5.89-3.982-13.056-8.915-13.852-12.578 0 0-.954 1.274 1.273 4.456 2.232 3.187 6.528 5.893 9.873 8.28 3.343 2.388 3.875 3.344 3.875 3.344 5.097 5.944 4.247 11.465 4.247 11.465-1.914-1.06-1.912-1.912-1.912-1.912-.422-10.615-17.195-9.129-17.195-9.129s10.612 2.125 13.375 5.31c2.76 3.185 1.487 4.882 1.487 4.882-2.975-5.517-7.009-5.308-9.554-4.884-2.546.424-4.46-.636-7.006-4.032-2.549-3.396-5.308-3.185-5.308-3.185 3.61-5.732 7.218-2.124 10.189-2.12 2.974-.002-.212-2.34-.212-2.34s-5.095 0-8.705-7.005c-3.607-7.005 2.337-12.1 2.337-12.1.852 3.821 4.457 6.158 8.705 6.157 4.245-.002 7.218 4.67 7.853 7.005.64 2.339 2.126 0 2.126 0 .422-8.915 5.728-8.28 5.728-8.28-2.97 5.945.639 9.98 1.487 13.377m-8.28-10.404s-1.698-2.123-7.004-3.184a38.539 38.539 0 0 1-.921-.197c2.398-.284 6.339-.529 10.258.218a10.553 10.553 0 0 0-2.334 3.163m-21.866 5.413c.637 2.229 3.185 4.777 3.185 4.777-6.05 3.184-6.844 8.44-6.844 8.44 5.89-3.664 10.67 5.573 11.78 7.003 1.116 1.432 3.662.479 3.662.479 1.717-.756 3.222-.943 4.562-.692-.994 2.035-3.692 7.982-4.464 14.044-6.538-.353-15.946-4.863-17.93-15.58-2.389-12.897 6.049-18.47 6.049-18.47m13.715 34.007c.348-2.782 1.421-7.296 4.445-13.339.997.556 1.89 1.377 2.698 2.418 2.155 2.765-1.047 10.261-7.143 10.921m4.854 34.752s1.098 1.133 3.263.125c2.162-1.006 4.086-1.934 7.963-.21 3.876 1.727 7.603 2.812 11.532.874 4.79-2.359 2.653-7.61-.453-7.727-3.102-.124-6.343 3.971-9.162.75 0 0 1.041-.544 1.553-3.082.51-2.545 2.54-5.303 5.493-5.661 2.949-.356 7.875.349 9.41-1.463 1.54-1.81-3.255-.442-5.835-3.738 0 0 2.717-.923 5.545-3.99 2.828-3.065 6.066-9.707 7.551-18.128 1.371 8.44 4.52 15.124 7.306 18.232 2.782 3.102 5.493 4.06 5.493 4.06-2.627 3.26-7.406 1.828-5.892 3.662 1.513 1.83 6.446 1.193 9.394 1.592 2.945.4 4.936 3.183 5.413 5.73.48 2.55 1.512 3.108 1.512 3.108-2.866 3.184-6.05-.958-9.155-.877-3.102.08-5.314 5.297-.556 7.72 3.903 1.992 7.643.956 11.544-.716 3.9-1.67 5.81-.716 7.962.318 2.146 1.038 3.262-.079 3.262-.079s.158 2.39-2.23 2.549c-2.39.158-4.375-.24-5.012.717-.636.955.715 1.99 3.263 2.306 2.544.32 3.343 2.39 5.493 4.7 2.147 2.303 3.74 3.741 3.74 3.741-3.105.877-4.537 4.22-7.246 5.81-2.703 1.591-5.09-1.273-6.527-1.433-1.432-.159-1.832 1.513-.476 3.665 1.355 2.147 1.034 4.536 1.034 4.536-3.023-2.23-7.801 0-10.587-1.992-2.788-1.987-1.832-6.288-5.893-9.551-4.057-3.264-7.403.557-6.129 4.379 1.274 3.818 4.382 5.49 7.404 7.72 3.023 2.23 2.309 5.017 2.468 7.885.159 2.864.876 4.854.876 4.854s-3.505 1.272-5.254-.16c-1.751-1.43-1.593-4.298-3.346-2.865-1.748 1.432.083 3.263.637 6.526.56 3.263-.954 4.619-3.901 7.405-2.945 2.789-3.102 3.263-3.738 4.695-.64 1.438-1.54 1.595-1.54 1.595s-.898-.172-1.515-1.611c-.617-1.445-.77-1.924-3.678-4.751-2.908-2.828-4.403-4.199-3.8-7.456.603-3.254 2.46-5.06.726-6.518-1.73-1.458-1.612 1.408-3.38 2.821-1.773 1.408-5.258.085-5.258.085s.747-1.98.942-4.843c.2-2.865-.48-5.66 2.578-7.849 3.053-2.186 6.18-3.814 7.505-7.618 1.326-3.804-1.963-7.671-6.069-4.462-4.102 3.208-3.207 7.519-6.022 9.47-2.81 1.952-7.558-.34-10.612 1.846 0 0-.286-2.39 1.096-4.524 1.383-2.13 1.007-3.807-.427-3.667-1.437.142-3.863 2.973-6.549 1.344-2.682-1.63-4.069-4.99-7.162-5.909 0 0 1.61-1.41 3.792-3.692 2.18-2.277 3.004-4.338 5.555-4.621 2.556-.282 3.922-1.301 3.298-2.263-.623-.964-2.62-.594-5.006-.782-2.386-.197-2.193-2.582-2.193-2.582m38.117-89.46a2.404 2.404 0 0 1-3.4-3.399 2.405 2.405 0 0 1 3.4 3.4M28.845 62.662c-.264-1.602-.916-5.33-.794-11.309 4.192-.263 9.712.16 9.712.16-.422 6.22.32 10.508.32 10.508-2.788.06-6.023.278-9.238.64m11.943-13.214c-.317-1.914 1.594-10.191 1.594-10.191 13.692 1.273 13.853 8.437 10.188 10.826-2.704 1.76-11.782-.635-11.782-.635m-2.705.05l-9.968-.499c.132-2.38.535-6.346 1.697-10.842 1.287.062 5.717.097 10.18.62-1.114 4.938-1.272 7.218-1.909 10.72m3.5-12.946l-11.144-.637c2.545-8.281 9.392-10.67 11.94-8.121 1.61 1.61 1.667 3.995-.796 8.758M25.98 51.514c-.16 4.938.636 11.146.636 11.146l-8.595 1.274-1.117-10.986zM41.745 64.73c3.502-.001 17.832 6.37 13.212 10.668-4.822 4.492-13.212-10.668-13.212-10.668M14.516 42.067a6.303 6.303 0 1 1-8.914-8.914 6.302 6.302 0 0 1 8.914-.001 6.303 6.303 0 0 1 0 8.915m252.304 1.527a8.407 8.407 0 0 0 0-11.89 8.405 8.405 0 0 0-11.89 0 8.36 8.36 0 0 0-2.35 4.638l-9.646-.286c-2.865-11.357-12.607-14.51-17.085-10.51-3.981 3.555 1.59 11.995 1.59 11.995s-11.359-.106-14.332 6.26c-2.971 6.373 3.399 10.191 6.793 9.769 3.398-.424 10.615-1.7 10.615-1.7.85 4.673-.21 10.187-.21 10.187s-7.007.854-12.95 4.674c-9.682 6.222-6.793 16.136 3.396 10.614 7.106-3.849 10.718-12.845 10.718-12.845 1.383-.527 10.297.321 10.297.321-2.543 11.888-16.768 27.385-31.844 33.117-16.52 6.284-31.63 3.61-31.63 3.61 1.91-7.43.849-15.285.849-15.285s15.803-.654 19.956-14.862c4.777-16.345-7.004-24.414-7.004-24.414.637-12.95-6.795-16.556-6.795-16.556 1.03 5.148-1.306 7.746-4.607 9.213-6.812-1.805-13.414-.682-16.118-.05-4.758-2.66-10.694-1.522-10.694-1.522 3.606.637 5.306 3.608 5.306 3.608-2.85 1.964-5.239 4.202-7.202 6.635a114.641 114.641 0 0 0-6.937-2.385c.254-2.747-.626-5.58-2.728-7.682a9.569 9.569 0 0 0-6.37-2.796l.001-3.522a4.792 4.792 0 0 0 2.55-1.326 4.805 4.805 0 0 0-.004-6.793 4.801 4.801 0 0 0-6.788 0 4.802 4.802 0 0 0-.005 6.793c.612.612 1.347.999 2.126 1.213l-.003 3.773a9.548 9.548 0 0 0-5.094 2.657c-2.086 2.086-2.966 4.885-2.734 7.609a116.24 116.24 0 0 0-7.047 2.421c-1.963-2.432-4.35-4.672-7.202-6.633 0 0 1.698-2.97 5.305-3.608 0 0-5.934-1.138-10.691 1.521-2.706-.63-9.305-1.756-16.119.047-3.3-1.464-5.635-4.06-4.607-9.213 0 0-7.435 3.611-6.795 16.561 0 0-11.781 8.064-7.005 24.414 4.153 14.206 19.958 14.86 19.958 14.86s-1.064 7.855.847 15.284c0 0-15.11 2.674-31.633-3.61-15.072-5.733-29.297-21.227-31.842-33.117 0 0 8.917-.85 10.297-.319 0 0 3.61 8.995 10.72 12.846 10.189 5.52 13.074-4.393 3.398-10.615-5.948-3.822-12.953-4.671-12.953-4.671s-1.06-5.52-.21-10.192c0 0 7.216 1.276 10.615 1.698 3.394.427 9.765-3.396 6.793-9.764-2.972-6.37-14.33-6.26-14.33-6.26s5.571-8.44 1.592-11.998c-4.48-3.998-14.223-.847-17.088 10.51l-9.647.288a8.342 8.342 0 0 0-2.35-4.641 8.406 8.406 0 0 0-11.888 0C.83 34.95.829 40.274 4.112 43.556a8.408 8.408 0 0 0 11.892 0 8.355 8.355 0 0 0 2.389-4.902l9.022-.352-1.594 10.823s-5.572.48-11.303 1.752c0 0-.48 3.027 1.06 15.603 0 0 5.305-.634 11.676-1.591 0 0 2.706 13.536 17.674 26.909 14.897 13.314 32.476 18.258 49.28 14.85 1.488 3.79 4.117 7.622 5.794 9.865-2.302.099-3.917-.493-3.917-.493-1.647 3.958 2.535 6.802 2.535 6.802-3.054 2.028-2.947 6.013-6.392 7.634-1.596.755-2.654 1.797-2.654 1.797 1.016 1.526 2.771 1.232 3.633 2.12.864.89 4.17 3.638 5.82 5.334 1.649 1.695 5.485.633 5.485.633s-.495 1.268-.365 3.18c.136 1.911.59 3.513.59 3.513 1.196-.066 3.522-1.227 5.593-1.36 2.87-.18 4.683 1.102 7.58-1.09 3.43-2.594 3.838-7.033 5.439-7.807 1.603-.772 3.396 2.037.895 4.469-2.502 2.437-3.941 2.896-5.472 4.386-1.534 1.49-1.751 5.788-2.108 8.49-.356 2.703-.685 3.335-1.497 4.76-.815 1.417-.362 3.017-.362 3.017 1.1 1.13 2.948-.039 3.667-.428.723-.388 1.431.338 2.785.436 1.348.101 2.968-1.63 2.968-1.63s-.51 2.222-.383 4.61c.125 2.394 2.716 5.213 5.784 7.884 3.069 2.667 2.963 4.338 3.579 5.941.617 1.6 1.625 2.084 1.625 2.084s1.011-.472 1.649-2.062c.636-1.59.556-3.265 3.662-5.893 3.102-2.627 5.732-5.41 5.892-7.8.158-2.39-.317-4.62-.317-4.62s1.59 1.754 2.946 1.673c1.35-.076 2.07-.795 2.783-.399.72.4 2.55 1.596 3.666.48 0 0 .472-1.593-.32-3.026-.796-1.434-1.115-2.07-1.433-4.776-.318-2.705-.48-7.007-1.992-8.518-1.511-1.512-2.945-1.99-5.413-4.458-2.469-2.469-.636-5.254.955-4.459 1.593.797 1.94 5.24 5.334 7.882 2.868 2.23 4.695.974 7.563 1.194 2.07.16 4.38 1.355 5.573 1.433 0 0 .477-1.591.636-3.502.16-1.913-.316-3.185-.316-3.185s3.82 1.114 5.492-.559c1.673-1.673 5.015-4.376 5.893-5.254.875-.874 2.624-.556 3.66-2.069 0 0-1.046-1.056-2.626-1.832-3.425-1.67-3.266-5.653-6.292-7.722 0 0 4.221-2.785 2.629-6.767 0 0-1.597.555-3.86.44 1.641-2.153 4.543-6.257 6.13-10.31 16.808 3.408 34.384-1.537 49.28-14.851 14.969-13.375 17.675-26.907 17.675-26.907a445.377 445.377 0 0 0 11.677 1.589c1.538-12.574 1.06-15.603 1.06-15.603-5.732-1.271-11.304-1.75-11.304-1.75l-1.592-10.827 9.022.352a8.339 8.339 0 0 0 2.388 4.905 8.409 8.409 0 0 0 11.89.001"/></g></svg>