<svg xmlns="http://www.w3.org/2000/svg" xmlns:xlink="http://www.w3.org/1999/xlink" viewBox="0 0 270.93334 203.2" height="768" width="1024"><defs><symbol viewBox="0 0 20 28" id="a"><title>user</title><path d="M20 21.859C20 24.14 18.5 26 16.672 26H3.328C1.5 26 0 24.141 0 21.859 0 17.75 1.016 13 5.109 13a6.979 6.979 0 0 0 9.782 0C18.985 13 20 17.75 20 21.859zM16 8c0 3.313-2.688 6-6 6s-6-2.688-6-6 2.688-6 6-6 6 2.688 6 6z" class="path1"/></symbol></defs><path opacity=".97" fill="#eeefe4" d="M-4.378-4.602h277.337v211.278H-4.378z"/><g transform="translate(0 -93.8)"><path d="M.348 296.985V93.568l135.996 101.708z" opacity=".97" fill="#d2d3c6"/><path d="M270.817 296.985V93.568L136.344 195.276z" opacity=".97" fill="#d2d3c6"/><g transform="matrix(1.32938 0 0 1.32938 -131.272 -137.643)"><rect width="47.152" height="33.531" x="114.578" y="231.438" ry="4.89" opacity=".97" fill="#455762"/><rect width="41.913" height="24.799" x="117.029" y="235.28" ry="0" opacity=".97" fill="#d2d3c6"/><path d="M129.808 261.64l-2.546 7.973h21.468s-2.5-7.35-2.5-7.973z" opacity=".97" fill="#455762"/></g><use height="100%" width="100%" transform="matrix(.1398 0 0 .1398 22.205 181.59)" xlink:href="#a" fill="red"/><use xlink:href="#a" transform="matrix(.1398 0 0 .1398 58.263 198.137)" width="100%" height="100%" fill="red"/><g fill="#455762"><path opacity=".97" d="M55.79 192.691h9.84v2.237h-9.84z"/><path d="M54.098 193.823l2.692-2.593v5.186zM67.012 193.823l-2.692-2.593v5.186z" opacity=".97"/></g><text y="133.051" x="102.049" style="line-height:1.25;-inkscape-font-specification:Ubuntu" font-weight="400" font-size="10.583" font-family="Ubuntu" letter-spacing="0" word-spacing="0" fill="#495b64" stroke-width=".265"><tspan y="133.051" x="102.049" font-size="16.933">Síncrono</tspan></text></g></svg>